ply
format ascii 1.0
comment ball mesh
element vertex 290
property float x
property float y
property float z
property uchar red
property uchar green
property uchar blue
element face 576
property list uchar int vertex_indices
property uchar red
property uchar green
property uchar blue
end_header
21.573 5.176 11.862   0   0 128
21.463 5.402 11.904   0   0 128
21.527 5.391 11.637   0   0 128
21.537 5.358 12.119   0   0 128
21.463 5.613 11.607   0   0 128
21.527 5.643 11.385   0   0 128
21.431 5.646 11.830   0   0 128
21.463 5.613 12.117   0   0 128
21.536 5.611 12.372   0   0 128
21.463 5.910 11.396   0   0 128
21.573 5.868 11.170   0   0 128
21.431 5.836 11.640   0   0 128
21.434 5.868 11.862   0   0 128
21.431 5.900 12.084   0   0 128
21.463 5.826 12.328   0   0 128
21.573 5.868 12.554   0   0 128
21.537 6.125 11.352   0   0 128
21.463 6.123 11.607   0   0 128
21.431 6.090 11.894   0   0 128
21.463 6.123 12.117   0   0 128
21.527 6.093 12.339   0   0 128
21.536 6.378 11.605   0   0 128
21.463 6.334 11.820   0   0 128
21.527 6.345 12.087   0   0 128
21.573 6.560 11.862   0   0 128
21.682 5.104 11.605   0   0 128
21.791 4.922 11.862   0   0 128
21.718 5.072 12.151   0   0 128
21.826 5.104 11.351   0   0 128
21.646 5.357 11.351   0   0 128
21.826 5.357 11.098   0   0 128
21.803 5.146 12.415   0   0 128
21.646 5.357 12.373   0   0 128
21.827 5.358 12.627   0   0 128
21.682 5.611 11.098   0   0 128
21.682 5.611 12.627   0   0 128
21.791 5.868 10.916   0   0 128
21.791 5.868 12.808   0   0 128
21.718 6.157 11.066   0   0 128
21.718 6.157 12.658   0   0 128
21.646 6.379 11.351   0   0 128
21.803 6.421 11.140   0   0 128
21.645 6.378 12.372   0   0 128
21.803 6.420 12.584   0   0 128
21.827 6.633 11.352   0   0 128
21.682 6.633 11.605   0   0 128
21.718 6.664 12.151   0   0 128
21.803 6.590 12.414   0   0 128
21.791 6.814 11.862   0   0 128
21.941 4.849 11.573   0   0 128
22.045 4.704 11.862   0   0 128
21.972 4.813 12.119   0   0 128
21.972 5.104 11.098   0   0 128
22.015 4.934 11.309   0   0 128
21.973 4.957 12.373   0   0 128
21.973 5.103 12.626   0   0 128
22.015 5.316 10.928   0   0 128
22.015 5.316 12.796   0   0 128
21.941 5.579 10.843   0   0 128
21.941 5.579 12.881   0   0 128
22.045 5.868 10.698   0   0 128
22.045 5.868 13.026   0   0 128
21.972 6.125 10.807   0   0 128
21.972 6.125 12.917   0   0 128
21.973 6.379 10.951   0   0 128
21.973 6.379 12.773   0   0 128
21.973 6.632 11.097   0   0 128
21.973 6.632 12.627   0   0 128
22.015 6.802 11.310   0   0 128
21.941 6.887 11.573   0   0 128
21.972 6.923 12.119   0   0 128
21.972 6.778 12.372   0   0 128
22.045 7.032 11.862   0   0 128
22.260 4.658 11.637   0   0 128
22.271 4.594 11.904   0   0 128
22.227 4.667 12.119   0   0 128
22.227 4.958 11.097   0   0 128
22.227 4.776 11.352   0   0 128
22.226 4.777 12.373   0   0 128
22.226 4.957 12.626   0   0 128
22.185 5.146 10.928   0   0 128
22.185 5.146 12.796   0   0 128
22.227 5.358 10.770   0   0 128
22.227 5.358 12.954   0   0 128
22.260 5.643 10.652   0   0 128
22.260 5.643 13.072   0   0 128
22.271 5.910 10.588   0   0 128
22.271 5.910 13.136   0   0 128
22.227 6.125 10.661   0   0 128
22.227 6.125 13.063   0   0 128
22.226 6.379 10.771   0   0 128
22.226 6.379 12.953   0   0 128
22.226 6.632 10.951   0   0 128
22.226 6.632 12.773   0   0 128
22.185 6.802 11.140   0   0 128
22.184 6.802 12.584   0   0 128
22.227 6.960 11.352   0   0 128
22.260 7.078 11.637   0   0 128
22.227 7.069 12.119   0   0 128
22.226 6.959 12.373   0   0 128
22.271 7.142 11.904   0   0 128
22.512 4.658 11.385   0   0 128
22.482 4.594 11.607   0   0 128
22.515 4.562 11.830   0   0 128
22.482 4.594 12.117   0   0 128
22.480 4.667 12.372   0   0 128
22.480 4.813 11.098   0   0 128
22.480 4.813 12.627   0   0 128
22.448 5.072 10.843   0   0 128
22.448 5.072 12.881   0   0 128
22.512 5.391 10.652   0   0 128
22.512 5.391 13.072   0   0 128
22.482 5.613 10.588   0   0 128
22.482 5.613 13.136   0   0 128
22.515 5.836 10.556   0   0 128
22.515 5.836 13.168   0   0 128
22.482 6.123 10.588   0   0 128
22.482 6.123 13.136   0   0 128
22.480 6.378 10.661   0   0 128
22.480 6.378 13.063   0   0 128
22.480 6.633 10.807   0   0 128
22.480 6.633 12.917   0   0 128
22.448 6.887 11.066   0   0 128
22.448 6.887 12.658   0   0 128
22.512 7.078 11.385   0   0 128
22.480 7.068 12.372   0   0 128
22.482 7.142 11.607   0   0 128
22.515 7.174 11.830   0   0 128
22.482 7.142 12.117   0   0 128
22.737 4.704 11.170   0   0 128
22.779 4.594 11.396   0   0 128
22.705 4.562 11.640   0   0 128
22.737 4.565 11.862   0   0 128
22.769 4.562 12.084   0   0 128
22.695 4.594 12.328   0   0 128
22.737 4.704 12.554   0   0 128
22.737 4.922 10.916   0   0 128
22.737 4.922 12.808   0   0 128
22.737 5.176 10.698   0   0 128
22.737 5.176 13.026   0   0 128
22.779 5.402 10.588   0   0 128
22.779 5.402 13.136   0   0 128
22.705 5.646 10.556   0   0 128
22.705 5.646 13.168   0   0 128
22.737 5.868 10.559   0   0 128
22.737 5.868 13.165   0   0 128
22.769 6.090 10.556   0   0 128
22.769 6.090 13.168   0   0 128
22.695 6.334 10.588   0   0 128
22.695 6.334 13.136   0   0 128
22.737 6.560 10.698   0   0 128
22.737 6.560 13.026   0   0 128
22.737 6.814 10.916   0   0 128
22.737 6.814 12.808   0   0 128
22.737 7.032 11.170   0   0 128
22.737 7.032 12.554   0   0 128
22.779 7.142 11.396   0   0 128
22.705 7.174 11.640   0   0 128
22.737 7.171 11.862   0   0 128
22.769 7.174 12.084   0   0 128
22.695 7.142 12.328   0   0 128
22.994 4.668 11.352   0   0 128
22.992 4.594 11.607   0   0 128
22.959 4.562 11.894   0   0 128
22.992 4.594 12.117   0   0 128
22.962 4.658 12.339   0   0 128
23.026 4.849 11.066   0   0 128
23.026 4.849 12.658   0   0 128
22.994 5.103 10.807   0   0 128
22.994 5.103 12.917   0   0 128
22.994 5.358 10.661   0   0 128
22.994 5.358 13.063   0   0 128
22.992 5.613 10.588   0   0 128
22.992 5.613 13.136   0   0 128
22.959 5.900 10.556   0   0 128
22.959 5.900 13.168   0   0 128
22.992 6.123 10.588   0   0 128
22.992 6.123 13.136   0   0 128
22.962 6.345 10.652   0   0 128
22.962 6.345 13.072   0   0 128
23.026 6.664 10.843   0   0 128
23.026 6.664 12.881   0   0 128
22.994 6.923 11.097   0   0 128
22.994 6.923 12.626   0   0 128
22.994 7.069 11.352   0   0 128
22.962 7.078 12.339   0   0 128
22.992 7.142 11.607   0   0 128
22.959 7.174 11.894   0   0 128
22.992 7.142 12.117   0   0 128
23.247 4.667 11.605   0   0 128
23.203 4.594 11.820   0   0 128
23.214 4.658 12.087   0   0 128
23.290 4.934 11.140   0   0 128
23.248 4.777 11.351   0   0 128
23.247 4.776 12.372   0   0 128
23.289 4.934 12.584   0   0 128
23.248 5.104 10.951   0   0 128
23.248 5.104 12.773   0   0 128
23.248 5.357 10.771   0   0 128
23.248 5.357 12.953   0   0 128
23.247 5.611 10.661   0   0 128
23.247 5.611 13.063   0   0 128
23.203 5.826 10.588   0   0 128
23.203 5.826 13.136   0   0 128
23.214 6.093 10.652   0   0 128
23.214 6.093 13.072   0   0 128
23.247 6.378 10.770   0   0 128
23.247 6.378 12.954   0   0 128
23.289 6.590 10.928   0   0 128
23.289 6.590 12.796   0   0 128
23.248 6.779 11.098   0   0 128
23.247 6.778 12.627   0   0 128
23.248 6.959 11.351   0   0 128
23.247 7.069 11.605   0   0 128
23.247 6.960 12.372   0   0 128
23.214 7.078 12.087   0   0 128
23.203 7.142 11.820   0   0 128
23.429 4.704 11.862   0   0 128
23.502 4.958 11.352   0   0 128
23.502 4.813 11.605   0   0 128
23.533 4.849 12.151   0   0 128
23.459 4.934 12.414   0   0 128
23.501 5.104 11.097   0   0 128
23.501 5.104 12.627   0   0 128
23.501 5.357 10.951   0   0 128
23.501 5.357 12.773   0   0 128
23.502 5.611 10.807   0   0 128
23.502 5.611 12.917   0   0 128
23.429 5.868 10.698   0   0 128
23.429 5.868 13.026   0   0 128
23.533 6.157 10.843   0   0 128
23.533 6.157 12.881   0   0 128
23.459 6.420 10.928   0   0 128
23.459 6.420 12.796   0   0 128
23.501 6.633 11.098   0   0 128
23.502 6.632 12.626   0   0 128
23.501 6.779 11.351   0   0 128
23.459 6.802 12.415   0   0 128
23.502 6.923 11.605   0   0 128
23.429 7.032 11.862   0   0 128
23.533 6.887 12.151   0   0 128
23.683 4.922 11.862   0   0 128
23.671 5.146 11.310   0   0 128
23.756 5.072 11.573   0   0 128
23.792 5.103 12.119   0   0 128
23.647 5.103 12.372   0   0 128
23.671 5.316 11.140   0   0 128
23.671 5.315 12.584   0   0 128
23.756 5.579 11.066   0   0 128
23.756 5.579 12.658   0   0 128
23.683 5.868 10.916   0   0 128
23.683 5.868 12.808   0   0 128
23.792 6.125 11.097   0   0 128
23.792 6.125 12.626   0   0 128
23.647 6.378 11.097   0   0 128
23.648 6.379 12.626   0   0 128
23.671 6.590 11.309   0   0 128
23.648 6.632 12.373   0   0 128
23.756 6.664 11.573   0   0 128
23.683 6.814 11.862   0   0 128
23.792 6.632 12.119   0   0 128
23.901 5.176 11.862   0   0 128
23.829 5.358 11.352   0   0 128
23.947 5.391 11.637   0   0 128
23.938 5.358 12.119   0   0 128
23.828 5.357 12.373   0   0 128
23.947 5.643 11.385   0   0 128
23.937 5.611 12.372   0   0 128
23.901 5.868 11.170   0   0 128
23.901 5.868 12.554   0   0 128
23.938 6.125 11.352   0   0 128
23.947 6.093 12.339   0   0 128
23.828 6.379 11.351   0   0 128
23.937 6.378 11.605   0   0 128
23.828 6.379 12.373   0   0 128
23.947 6.345 12.087   0   0 128
23.901 6.560 11.862   0   0 128
24.011 5.402 11.904   0   0 128
24.011 5.613 11.607   0   0 128
24.043 5.646 11.830   0   0 128
24.011 5.613 12.117   0   0 128
24.011 5.910 11.396   0   0 128
24.043 5.836 11.640   0   0 128
24.040 5.868 11.862   0   0 128
24.043 5.900 12.084   0   0 128
24.011 5.826 12.328   0   0 128
24.011 6.123 11.607   0   0 128
24.043 6.090 11.894   0   0 128
24.011 6.123 12.117   0   0 128
24.011 6.334 11.820   0   0 128
3 0 1 2   0   0 128
3 3 1 0   0   0 128
3 2 4 5   0   0 128
3 2 1 6   0   0 128
3 2 6 4   0   0 128
3 1 3 7   0   0 128
3 1 7 6   0   0 128
3 8 7 3   0   0 128
3 5 9 10   0   0 128
3 5 4 11   0   0 128
3 5 11 9   0   0 128
3 11 4 6   0   0 128
3 11 6 12   0   0 128
3 6 7 13   0   0 128
3 6 13 12   0   0 128
3 7 8 14   0   0 128
3 7 14 13   0   0 128
3 15 14 8   0   0 128
3 10 9 16   0   0 128
3 9 11 17   0   0 128
3 9 17 16   0   0 128
3 18 17 11   0   0 128
3 18 11 12   0   0 128
3 13 19 18   0   0 128
3 13 18 12   0   0 128
3 13 14 20   0   0 128
3 13 20 19   0   0 128
3 20 14 15   0   0 128
3 16 17 21   0   0 128
3 17 18 22   0   0 128
3 17 22 21   0   0 128
3 18 19 23   0   0 128
3 18 23 22   0   0 128
3 23 19 20   0   0 128
3 21 22 24   0   0 128
3 24 22 23   0   0 128
3 25 26 0   0   0 128
3 27 0 26   0   0 128
3 28 29 30   0   0 128
3 29 28 25   0   0 128
3 29 25 2   0   0 128
3 2 25 0   0   0 128
3 27 3 0   0   0 128
3 27 31 32   0   0 128
3 27 32 3   0   0 128
3 33 32 31   0   0 128
3 34 30 29   0   0 128
3 34 29 5   0   0 128
3 5 29 2   0   0 128
3 32 8 3   0   0 128
3 32 33 35   0   0 128
3 32 35 8   0   0 128
3 36 34 10   0   0 128
3 10 34 5   0   0 128
3 35 15 8   0   0 128
3 37 15 35   0   0 128
3 36 10 38   0   0 128
3 38 10 16   0   0 128
3 15 39 20   0   0 128
3 37 39 15   0   0 128
3 40 41 38   0   0 128
3 40 38 16   0   0 128
3 40 16 21   0   0 128
3 20 42 23   0   0 128
3 39 43 42   0   0 128
3 39 42 20   0   0 128
3 41 40 44   0   0 128
3 45 44 40   0   0 128
3 45 40 21   0   0 128
3 45 21 24   0   0 128
3 23 46 24   0   0 128
3 42 47 46   0   0 128
3 42 46 23   0   0 128
3 47 42 43   0   0 128
3 45 24 48   0   0 128
3 46 48 24   0   0 128
3 49 50 26   0   0 128
3 51 26 50   0   0 128
3 52 53 28   0   0 128
3 49 25 28   0   0 128
3 49 28 53   0   0 128
3 25 49 26   0   0 128
3 51 27 26   0   0 128
3 54 31 27   0   0 128
3 54 27 51   0   0 128
3 55 31 54   0   0 128
3 56 52 30   0   0 128
3 30 52 28   0   0 128
3 55 33 31   0   0 128
3 57 33 55   0   0 128
3 30 34 58   0   0 128
3 30 58 56   0   0 128
3 59 35 33   0   0 128
3 59 33 57   0   0 128
3 60 58 36   0   0 128
3 36 58 34   0   0 128
3 59 37 35   0   0 128
3 61 37 59   0   0 128
3 60 36 62   0   0 128
3 62 36 38   0   0 128
3 37 63 39   0   0 128
3 61 63 37   0   0 128
3 38 41 64   0   0 128
3 38 64 62   0   0 128
3 65 43 39   0   0 128
3 65 39 63   0   0 128
3 64 41 66   0   0 128
3 66 41 44   0   0 128
3 43 67 47   0   0 128
3 65 67 43   0   0 128
3 66 44 68   0   0 128
3 69 68 44   0   0 128
3 69 44 45   0   0 128
3 69 45 48   0   0 128
3 46 70 48   0   0 128
3 71 70 46   0   0 128
3 71 46 47   0   0 128
3 67 71 47   0   0 128
3 69 48 72   0   0 128
3 70 72 48   0   0 128
3 73 74 50   0   0 128
3 50 74 75   0   0 128
3 76 77 53   0   0 128
3 49 53 77   0   0 128
3 49 77 73   0   0 128
3 49 73 50   0   0 128
3 75 51 50   0   0 128
3 78 54 51   0   0 128
3 78 51 75   0   0 128
3 54 78 79   0   0 128
3 80 76 52   0   0 128
3 52 76 53   0   0 128
3 79 55 54   0   0 128
3 81 55 79   0   0 128
3 56 82 80   0   0 128
3 56 80 52   0   0 128
3 81 57 55   0   0 128
3 81 83 57   0   0 128
3 82 56 58   0   0 128
3 82 58 84   0   0 128
3 59 57 83   0   0 128
3 59 83 85   0   0 128
3 60 86 84   0   0 128
3 60 84 58   0   0 128
3 85 61 59   0   0 128
3 85 87 61   0   0 128
3 88 86 60   0   0 128
3 88 60 62   0   0 128
3 61 89 63   0   0 128
3 61 87 89   0   0 128
3 62 64 90   0   0 128
3 62 90 88   0   0 128
3 91 65 63   0   0 128
3 91 63 89   0   0 128
3 92 90 64   0   0 128
3 92 64 66   0   0 128
3 65 93 67   0   0 128
3 65 91 93   0   0 128
3 92 66 94   0   0 128
3 94 66 68   0   0 128
3 67 95 71   0   0 128
3 93 95 67   0   0 128
3 68 96 94   0   0 128
3 96 68 69   0   0 128
3 96 69 97   0   0 128
3 97 69 72   0   0 128
3 70 98 72   0   0 128
3 70 71 99   0   0 128
3 70 99 98   0   0 128
3 95 99 71   0   0 128
3 72 100 97   0   0 128
3 98 100 72   0   0 128
3 101 102 73   0   0 128
3 73 102 103   0   0 128
3 73 103 74   0   0 128
3 74 103 104   0   0 128
3 74 104 75   0   0 128
3 75 104 105   0   0 128
3 77 76 106   0   0 128
3 77 106 101   0   0 128
3 77 101 73   0   0 128
3 105 78 75   0   0 128
3 107 79 78   0   0 128
3 107 78 105   0   0 128
3 76 80 108   0   0 128
3 76 108 106   0   0 128
3 79 107 109   0   0 128
3 79 109 81   0   0 128
3 108 80 82   0   0 128
3 108 82 110   0   0 128
3 83 81 109   0   0 128
3 83 109 111   0   0 128
3 84 112 110   0   0 128
3 84 110 82   0   0 128
3 111 85 83   0   0 128
3 111 113 85   0   0 128
3 84 86 114   0   0 128
3 84 114 112   0   0 128
3 85 113 115   0   0 128
3 85 115 87   0   0 128
3 86 88 116   0   0 128
3 86 116 114   0   0 128
3 87 115 117   0   0 128
3 87 117 89   0   0 128
3 118 116 88   0   0 128
3 118 88 90   0   0 128
3 89 119 91   0   0 128
3 89 117 119   0   0 128
3 90 92 120   0   0 128
3 90 120 118   0   0 128
3 121 93 91   0   0 128
3 121 91 119   0   0 128
3 92 94 122   0   0 128
3 92 122 120   0   0 128
3 93 121 123   0   0 128
3 93 123 95   0   0 128
3 122 94 96   0   0 128
3 122 96 124   0   0 128
3 124 96 97   0   0 128
3 99 125 98   0   0 128
3 99 95 123   0   0 128
3 99 123 125   0   0 128
3 97 126 124   0   0 128
3 97 100 127   0   0 128
3 97 127 126   0   0 128
3 100 98 128   0   0 128
3 100 128 127   0   0 128
3 125 128 98   0   0 128
3 129 130 101   0   0 128
3 101 130 131   0   0 128
3 101 131 102   0   0 128
3 103 102 131   0   0 128
3 103 131 132   0   0 128
3 133 104 103   0   0 128
3 133 103 132   0   0 128
3 104 133 134   0   0 128
3 104 134 105   0   0 128
3 105 134 135   0   0 128
3 136 129 106   0   0 128
3 106 129 101   0   0 128
3 135 107 105   0   0 128
3 137 107 135   0   0 128
3 138 136 108   0   0 128
3 108 136 106   0   0 128
3 137 109 107   0   0 128
3 139 109 137   0   0 128
3 110 140 138   0   0 128
3 110 138 108   0   0 128
3 139 111 109   0   0 128
3 139 141 111   0   0 128
3 110 112 142   0   0 128
3 110 142 140   0   0 128
3 111 141 143   0   0 128
3 111 143 113   0   0 128
3 142 112 114   0   0 128
3 142 114 144   0   0 128
3 115 113 143   0   0 128
3 115 143 145   0   0 128
3 114 116 146   0   0 128
3 114 146 144   0   0 128
3 147 117 115   0   0 128
3 147 115 145   0   0 128
3 116 118 148   0   0 128
3 116 148 146   0   0 128
3 117 147 149   0   0 128
3 117 149 119   0   0 128
3 150 148 118   0   0 128
3 150 118 120   0   0 128
3 119 151 121   0   0 128
3 119 149 151   0   0 128
3 150 120 152   0   0 128
3 152 120 122   0   0 128
3 121 153 123   0   0 128
3 151 153 121   0   0 128
3 152 122 154   0   0 128
3 154 122 124   0   0 128
3 123 155 125   0   0 128
3 153 155 123   0   0 128
3 124 156 154   0   0 128
3 124 126 157   0   0 128
3 124 157 156   0   0 128
3 157 126 127   0   0 128
3 157 127 158   0   0 128
3 127 128 159   0   0 128
3 127 159 158   0   0 128
3 128 125 160   0   0 128
3 128 160 159   0   0 128
3 155 160 125   0   0 128
3 161 130 129   0   0 128
3 130 161 162   0   0 128
3 130 162 131   0   0 128
3 131 162 163   0   0 128
3 131 163 132   0   0 128
3 163 164 133   0   0 128
3 163 133 132   0   0 128
3 133 164 165   0   0 128
3 133 165 134   0   0 128
3 135 134 165   0   0 128
3 136 166 129   0   0 128
3 129 166 161   0   0 128
3 167 135 165   0   0 128
3 137 135 167   0   0 128
3 138 168 136   0   0 128
3 136 168 166   0   0 128
3 169 137 167   0   0 128
3 139 137 169   0   0 128
3 138 140 170   0   0 128
3 138 170 168   0   0 128
3 171 139 169   0   0 128
3 171 141 139   0   0 128
3 140 142 172   0   0 128
3 140 172 170   0   0 128
3 141 171 173   0   0 128
3 141 173 143   0   0 128
3 174 172 142   0   0 128
3 174 142 144   0   0 128
3 143 173 175   0   0 128
3 143 175 145   0   0 128
3 146 176 174   0   0 128
3 146 174 144   0   0 128
3 175 177 147   0   0 128
3 175 147 145   0   0 128
3 146 148 178   0   0 128
3 146 178 176   0   0 128
3 147 177 179   0   0 128
3 147 179 149   0   0 128
3 178 148 150   0   0 128
3 178 150 180   0   0 128
3 151 179 181   0   0 128
3 151 149 179   0   0 128
3 150 152 180   0   0 128
3 180 152 182   0   0 128
3 153 181 183   0   0 128
3 151 181 153   0   0 128
3 152 154 182   0   0 128
3 182 154 184   0   0 128
3 155 183 185   0   0 128
3 153 183 155   0   0 128
3 154 156 184   0   0 128
3 156 157 186   0   0 128
3 156 186 184   0   0 128
3 187 186 157   0   0 128
3 187 157 158   0   0 128
3 159 188 187   0   0 128
3 159 187 158   0   0 128
3 159 160 185   0   0 128
3 159 185 188   0   0 128
3 185 160 155   0   0 128
3 189 162 161   0   0 128
3 162 189 190   0   0 128
3 162 190 163   0   0 128
3 163 190 191   0   0 128
3 163 191 164   0   0 128
3 165 164 191   0   0 128
3 166 192 193   0   0 128
3 166 193 161   0   0 128
3 161 193 189   0   0 128
3 194 165 191   0   0 128
3 194 195 167   0   0 128
3 194 167 165   0   0 128
3 166 168 196   0   0 128
3 166 196 192   0   0 128
3 167 195 197   0   0 128
3 167 197 169   0   0 128
3 198 196 168   0   0 128
3 198 168 170   0   0 128
3 169 197 199   0   0 128
3 169 199 171   0   0 128
3 170 172 200   0   0 128
3 170 200 198   0   0 128
3 201 171 199   0   0 128
3 201 173 171   0   0 128
3 172 174 202   0   0 128
3 172 202 200   0   0 128
3 173 201 203   0   0 128
3 173 203 175   0   0 128
3 174 176 204   0   0 128
3 174 204 202   0   0 128
3 175 203 205   0   0 128
3 175 205 177   0   0 128
3 204 176 178   0   0 128
3 204 178 206   0   0 128
3 179 205 207   0   0 128
3 179 177 205   0   0 128
3 180 208 206   0   0 128
3 180 206 178   0   0 128
3 207 209 181   0   0 128
3 207 181 179   0   0 128
3 180 182 210   0   0 128
3 180 210 208   0   0 128
3 181 209 211   0   0 128
3 181 211 183   0   0 128
3 212 210 182   0   0 128
3 212 182 184   0   0 128
3 212 184 213   0   0 128
3 185 214 215   0   0 128
3 183 211 214   0   0 128
3 183 214 185   0   0 128
3 184 186 213   0   0 128
3 186 187 216   0   0 128
3 186 216 213   0   0 128
3 187 188 215   0   0 128
3 187 215 216   0   0 128
3 215 188 185   0   0 128
3 217 190 189   0   0 128
3 191 190 217   0   0 128
3 218 193 192   0   0 128
3 193 218 219   0   0 128
3 193 219 189   0   0 128
3 189 219 217   0   0 128
3 220 191 217   0   0 128
3 220 221 194   0   0 128
3 220 194 191   0   0 128
3 195 194 221   0   0 128
3 196 222 192   0   0 128
3 192 222 218   0   0 128
3 223 195 221   0   0 128
3 197 195 223   0   0 128
3 196 198 224   0   0 128
3 196 224 222   0   0 128
3 225 197 223   0   0 128
3 225 199 197   0   0 128
3 226 224 198   0   0 128
3 226 198 200   0   0 128
3 199 225 227   0   0 128
3 199 227 201   0   0 128
3 200 202 228   0   0 128
3 200 228 226   0   0 128
3 229 201 227   0   0 128
3 229 203 201   0   0 128
3 228 202 204   0   0 128
3 228 204 230   0   0 128
3 205 229 231   0   0 128
3 205 203 229   0   0 128
3 206 232 230   0   0 128
3 206 230 204   0   0 128
3 231 233 207   0   0 128
3 231 207 205   0   0 128
3 232 206 208   0   0 128
3 232 208 234   0   0 128
3 209 233 235   0   0 128
3 209 207 233   0   0 128
3 208 210 234   0   0 128
3 234 210 236   0   0 128
3 211 235 237   0   0 128
3 209 235 211   0   0 128
3 210 212 236   0   0 128
3 238 236 212   0   0 128
3 238 212 213   0   0 128
3 238 213 239   0   0 128
3 215 240 239   0   0 128
3 214 237 240   0   0 128
3 214 240 215   0   0 128
3 237 214 211   0   0 128
3 213 216 239   0   0 128
3 239 216 215   0   0 128
3 219 241 217   0   0 128
3 220 217 241   0   0 128
3 222 242 218   0   0 128
3 243 219 218   0   0 128
3 243 218 242   0   0 128
3 219 243 241   0   0 128
3 244 220 241   0   0 128
3 245 221 220   0   0 128
3 245 220 244   0   0 128
3 223 221 245   0   0 128
3 224 246 222   0   0 128
3 222 246 242   0   0 128
3 247 223 245   0   0 128
3 225 223 247   0   0 128
3 248 246 224   0   0 128
3 248 224 226   0   0 128
3 225 247 249   0   0 128
3 225 249 227   0   0 128
3 228 250 226   0   0 128
3 226 250 248   0   0 128
3 251 227 249   0   0 128
3 229 227 251   0   0 128
3 228 230 250   0   0 128
3 250 230 252   0   0 128
3 231 251 253   0   0 128
3 229 251 231   0   0 128
3 254 252 230   0   0 128
3 254 230 232   0   0 128
3 231 253 255   0   0 128
3 231 255 233   0   0 128
3 232 234 254   0   0 128
3 254 234 256   0   0 128
3 235 255 257   0   0 128
3 233 255 235   0   0 128
3 234 236 256   0   0 128
3 258 256 236   0   0 128
3 258 236 238   0   0 128
3 258 238 259   0   0 128
3 240 260 259   0   0 128
3 257 260 240   0   0 128
3 257 240 237   0   0 128
3 235 257 237   0   0 128
3 238 239 259   0   0 128
3 240 259 239   0   0 128
3 243 261 241   0   0 128
3 244 241 261   0   0 128
3 246 262 242   0   0 128
3 243 242 262   0   0 128
3 243 262 263   0   0 128
3 243 263 261   0   0 128
3 264 244 261   0   0 128
3 265 245 244   0   0 128
3 265 244 264   0   0 128
3 245 265 247   0   0 128
3 262 246 248   0   0 128
3 262 248 266   0   0 128
3 262 266 263   0   0 128
3 267 265 264   0   0 128
3 249 247 265   0   0 128
3 249 265 267   0   0 128
3 250 268 248   0   0 128
3 248 268 266   0   0 128
3 269 249 267   0   0 128
3 251 249 269   0   0 128
3 250 252 268   0   0 128
3 268 252 270   0   0 128
3 253 269 271   0   0 128
3 251 269 253   0   0 128
3 252 254 272   0   0 128
3 252 272 270   0   0 128
3 270 272 273   0   0 128
3 274 271 275   0   0 128
3 274 255 253   0   0 128
3 274 253 271   0   0 128
3 256 272 254   0   0 128
3 272 256 258   0   0 128
3 272 258 273   0   0 128
3 273 258 276   0   0 128
3 260 275 276   0   0 128
3 260 257 274   0   0 128
3 260 274 275   0   0 128
3 255 274 257   0   0 128
3 258 259 276   0   0 128
3 260 276 259   0   0 128
3 263 277 261   0   0 128
3 261 277 264   0   0 128
3 266 278 263   0   0 128
3 263 278 279   0   0 128
3 263 279 277   0   0 128
3 277 279 280   0   0 128
3 277 280 264   0   0 128
3 264 280 267   0   0 128
3 268 281 266   0   0 128
3 266 281 282   0   0 128
3 266 282 278   0   0 128
3 279 278 282   0   0 128
3 279 282 283   0   0 128
3 284 280 279   0   0 128
3 284 279 283   0   0 128
3 280 284 285   0   0 128
3 280 285 267   0   0 128
3 267 285 269   0   0 128
3 270 281 268   0   0 128
3 281 270 286   0   0 128
3 281 286 282   0   0 128
3 282 286 287   0   0 128
3 282 287 283   0   0 128
3 287 288 284   0   0 128
3 287 284 283   0   0 128
3 284 288 271   0   0 128
3 284 271 285   0   0 128
3 269 285 271   0   0 128
3 273 286 270   0   0 128
3 286 273 289   0   0 128
3 286 289 287   0   0 128
3 287 289 275   0   0 128
3 287 275 288   0   0 128
3 271 288 275   0   0 128
3 276 289 273   0   0 128
3 275 289 276   0   0 128
