ply
format ascii 1.0
comment ball mesh
element vertex 446
property float x
property float y
property float z
property uchar red
property uchar green
property uchar blue
element face 888
property list uchar int vertex_indices
property uchar red
property uchar green
property uchar blue
end_header
21.209 5.038 11.287   0   0 128
21.113 5.306 11.300   0   0 128
21.209 5.293 11.032   0   0 128
21.186 5.007 11.582   0   0 128
21.112 5.264 11.511   0   0 128
21.186 5.007 11.833   0   0 128
21.112 5.264 11.762   0   0 128
21.186 5.007 12.085   0   0 128
21.112 5.265 12.012   0   0 128
21.200 5.048 12.312   0   0 128
21.113 5.264 12.267   0   0 128
21.224 5.261 12.525   0   0 128
21.112 5.517 11.258   0   0 128
21.186 5.588 11.001   0   0 128
21.112 5.475 11.469   0   0 128
21.081 5.548 11.731   0   0 128
21.112 5.517 12.013   0   0 128
21.112 5.518 12.265   0   0 128
21.186 5.517 12.523   0   0 128
21.112 5.768 11.258   0   0 128
21.186 5.839 11.001   0   0 128
21.081 5.737 11.542   0   0 128
21.084 5.768 11.762   0   0 128
21.081 5.799 11.982   0   0 128
21.112 5.768 12.266   0   0 128
21.186 5.768 12.523   0   0 128
21.112 6.018 11.259   0   0 128
21.186 6.091 11.001   0   0 128
21.112 6.019 11.511   0   0 128
21.081 5.988 11.793   0   0 128
21.112 6.061 12.055   0   0 128
21.112 6.019 12.266   0   0 128
21.186 6.020 12.523   0   0 128
21.113 6.273 11.258   0   0 128
21.200 6.318 11.042   0   0 128
21.112 6.271 11.512   0   0 128
21.112 6.272 11.762   0   0 128
21.112 6.272 12.013   0   0 128
21.112 6.229 12.223   0   0 128
21.186 6.274 12.451   0   0 128
21.224 6.531 11.255   0   0 128
21.186 6.529 11.511   0   0 128
21.186 6.529 11.762   0   0 128
21.186 6.529 12.014   0   0 128
21.186 6.457 12.268   0   0 128
21.369 5.006 11.000   0   0 128
21.441 4.752 11.254   0   0 128
21.368 4.752 11.510   0   0 128
21.368 4.752 11.762   0   0 128
21.368 4.752 12.014   0   0 128
21.369 4.824 12.270   0   0 128
21.370 5.005 12.525   0   0 128
21.441 5.260 10.746   0   0 128
21.441 5.260 12.778   0   0 128
21.368 5.516 10.746   0   0 128
21.368 5.516 12.778   0   0 128
21.368 5.768 10.746   0   0 128
21.368 5.768 12.778   0   0 128
21.368 6.020 10.746   0   0 128
21.368 6.020 12.778   0   0 128
21.369 6.276 10.818   0   0 128
21.369 6.275 12.706   0   0 128
21.370 6.531 10.999   0   0 128
21.369 6.530 12.524   0   0 128
21.441 6.784 11.254   0   0 128
21.368 6.784 11.510   0   0 128
21.368 6.784 11.762   0   0 128
21.368 6.784 12.014   0   0 128
21.369 6.712 12.269   0   0 128
21.622 4.753 10.968   0   0 128
21.693 4.500 11.255   0   0 128
21.621 4.499 11.510   0   0 128
21.621 4.499 11.762   0   0 128
21.621 4.499 12.014   0   0 128
21.621 4.572 12.270   0   0 128
21.622 4.753 12.556   0   0 128
21.622 4.974 10.747   0   0 128
21.694 4.825 10.819   0   0 128
21.694 4.825 12.705   0   0 128
21.622 4.974 12.777   0   0 128
21.693 5.261 10.494   0   0 128
21.693 5.261 13.030   0   0 128
21.621 5.516 10.493   0   0 128
21.621 5.516 13.031   0   0 128
21.621 5.768 10.493   0   0 128
21.621 5.768 13.031   0   0 128
21.621 6.020 10.493   0   0 128
21.621 6.020 13.031   0   0 128
21.621 6.276 10.566   0   0 128
21.621 6.276 12.958   0   0 128
21.622 6.562 10.747   0   0 128
21.622 6.562 12.777   0   0 128
21.622 6.783 10.968   0   0 128
21.694 6.711 10.819   0   0 128
21.622 6.783 12.556   0   0 128
21.694 6.711 12.705   0   0 128
21.693 7.036 11.255   0   0 128
21.621 7.037 11.510   0   0 128
21.621 7.037 11.762   0   0 128
21.621 7.037 12.014   0   0 128
21.621 6.964 12.270   0   0 128
21.875 4.500 10.999   0   0 128
21.949 4.317 11.256   0   0 128
21.876 4.317 11.510   0   0 128
21.876 4.317 11.762   0   0 128
21.876 4.317 12.013   0   0 128
21.874 4.355 12.269   0   0 128
21.874 4.501 12.525   0   0 128
21.843 4.753 10.747   0   0 128
21.843 4.753 12.777   0   0 128
21.875 5.006 10.494   0   0 128
21.875 5.006 13.030   0   0 128
21.948 5.262 10.311   0   0 128
21.948 5.262 13.213   0   0 128
21.876 5.516 10.311   0   0 128
21.876 5.516 13.213   0   0 128
21.876 5.768 10.311   0   0 128
21.876 5.768 13.213   0   0 128
21.876 6.019 10.311   0   0 128
21.876 6.019 13.213   0   0 128
21.874 6.275 10.349   0   0 128
21.874 6.275 13.175   0   0 128
21.874 6.531 10.495   0   0 128
21.874 6.531 13.029   0   0 128
21.843 6.783 10.747   0   0 128
21.843 6.783 12.777   0   0 128
21.875 7.036 11.000   0   0 128
21.874 7.035 12.525   0   0 128
21.948 7.219 11.256   0   0 128
21.876 7.219 11.510   0   0 128
21.876 7.219 11.762   0   0 128
21.876 7.219 12.013   0   0 128
21.874 7.181 12.269   0   0 128
22.163 4.340 11.032   0   0 128
22.176 4.243 11.300   0   0 128
22.133 4.243 11.511   0   0 128
22.133 4.243 11.762   0   0 128
22.134 4.243 12.012   0   0 128
22.132 4.244 12.267   0   0 128
22.130 4.355 12.525   0   0 128
22.129 4.572 10.746   0   0 128
22.129 4.572 12.778   0   0 128
22.130 4.824 10.494   0   0 128
22.130 4.824 13.030   0   0 128
22.131 5.079 10.311   0   0 128
22.131 5.079 13.213   0   0 128
22.176 5.307 10.237   0   0 128
22.176 5.307 13.287   0   0 128
22.133 5.517 10.237   0   0 128
22.133 5.517 13.287   0   0 128
22.133 5.768 10.237   0   0 128
22.133 5.768 13.287   0   0 128
22.134 6.018 10.237   0   0 128
22.134 6.018 13.287   0   0 128
22.132 6.273 10.238   0   0 128
22.132 6.273 13.286   0   0 128
22.130 6.531 10.349   0   0 128
22.130 6.531 13.175   0   0 128
22.129 6.784 10.566   0   0 128
22.129 6.784 12.958   0   0 128
22.130 7.036 10.818   0   0 128
22.129 7.036 12.706   0   0 128
22.131 7.219 11.073   0   0 128
22.087 7.205 12.482   0   0 128
22.176 7.293 11.301   0   0 128
22.133 7.293 11.511   0   0 128
22.133 7.293 11.762   0   0 128
22.134 7.293 12.012   0   0 128
22.132 7.292 12.266   0   0 128
22.457 4.317 11.001   0   0 128
22.386 4.243 11.258   0   0 128
22.344 4.243 11.469   0   0 128
22.417 4.212 11.731   0   0 128
22.386 4.243 12.013   0   0 128
22.387 4.243 12.265   0   0 128
22.386 4.317 12.523   0   0 128
22.385 4.499 10.746   0   0 128
22.385 4.499 12.778   0   0 128
22.385 4.752 10.493   0   0 128
22.385 4.752 13.031   0   0 128
22.385 5.007 10.311   0   0 128
22.385 5.007 13.213   0   0 128
22.386 5.264 10.237   0   0 128
22.386 5.264 13.287   0   0 128
22.344 5.475 10.237   0   0 128
22.344 5.475 13.287   0   0 128
22.417 5.737 10.206   0   0 128
22.417 5.737 13.318   0   0 128
22.386 6.019 10.237   0   0 128
22.386 6.019 13.287   0   0 128
22.387 6.271 10.237   0   0 128
22.387 6.271 13.287   0   0 128
22.386 6.529 10.311   0   0 128
22.386 6.529 13.213   0   0 128
22.385 6.784 10.493   0   0 128
22.385 6.784 13.031   0   0 128
22.385 7.037 10.746   0   0 128
22.385 7.037 12.778   0   0 128
22.385 7.219 11.001   0   0 128
22.314 7.219 12.523   0   0 128
22.386 7.293 11.258   0   0 128
22.344 7.293 11.469   0   0 128
22.417 7.324 11.731   0   0 128
22.386 7.293 12.013   0   0 128
22.387 7.293 12.265   0   0 128
22.708 4.317 11.001   0   0 128
22.637 4.243 11.258   0   0 128
22.606 4.212 11.542   0   0 128
22.637 4.215 11.762   0   0 128
22.668 4.212 11.982   0   0 128
22.637 4.243 12.266   0   0 128
22.637 4.317 12.523   0   0 128
22.637 4.499 10.746   0   0 128
22.637 4.499 12.778   0   0 128
22.637 4.752 10.493   0   0 128
22.637 4.752 13.031   0   0 128
22.637 5.007 10.311   0   0 128
22.637 5.007 13.213   0   0 128
22.637 5.264 10.237   0   0 128
22.637 5.264 13.287   0   0 128
22.606 5.548 10.206   0   0 128
22.606 5.548 13.318   0   0 128
22.637 5.768 10.209   0   0 128
22.637 5.768 13.315   0   0 128
22.668 5.988 10.206   0   0 128
22.668 5.988 13.318   0   0 128
22.637 6.272 10.237   0   0 128
22.637 6.272 13.287   0   0 128
22.637 6.529 10.311   0   0 128
22.637 6.529 13.213   0   0 128
22.637 6.784 10.493   0   0 128
22.637 6.784 13.031   0   0 128
22.637 7.037 10.746   0   0 128
22.637 7.037 12.778   0   0 128
22.637 7.219 11.001   0   0 128
22.566 7.219 12.523   0   0 128
22.637 7.293 11.258   0   0 128
22.606 7.324 11.542   0   0 128
22.637 7.321 11.762   0   0 128
22.668 7.324 11.982   0   0 128
22.637 7.293 12.266   0   0 128
22.960 4.317 11.001   0   0 128
22.887 4.243 11.259   0   0 128
22.888 4.243 11.511   0   0 128
22.857 4.212 11.793   0   0 128
22.930 4.243 12.055   0   0 128
22.888 4.243 12.266   0   0 128
22.889 4.317 12.523   0   0 128
22.889 4.499 10.746   0   0 128
22.889 4.499 12.778   0   0 128
22.889 4.752 10.493   0   0 128
22.889 4.752 13.031   0   0 128
22.888 5.007 10.311   0   0 128
22.888 5.007 13.213   0   0 128
22.887 5.265 10.237   0   0 128
22.887 5.265 13.287   0   0 128
22.888 5.517 10.237   0   0 128
22.888 5.517 13.287   0   0 128
22.857 5.799 10.206   0   0 128
22.857 5.799 13.318   0   0 128
22.930 6.061 10.237   0   0 128
22.930 6.061 13.287   0   0 128
22.888 6.272 10.237   0   0 128
22.888 6.272 13.287   0   0 128
22.889 6.529 10.311   0   0 128
22.889 6.529 13.213   0   0 128
22.889 6.784 10.493   0   0 128
22.889 6.784 13.031   0   0 128
22.889 7.037 10.746   0   0 128
22.889 7.037 12.778   0   0 128
22.888 7.219 11.001   0   0 128
22.817 7.219 12.523   0   0 128
22.887 7.293 11.259   0   0 128
22.888 7.293 11.511   0   0 128
22.857 7.324 11.793   0   0 128
22.930 7.293 12.055   0   0 128
22.888 7.293 12.266   0   0 128
23.187 4.331 11.042   0   0 128
23.142 4.244 11.258   0   0 128
23.140 4.243 11.512   0   0 128
23.141 4.243 11.762   0   0 128
23.141 4.243 12.013   0   0 128
23.098 4.243 12.223   0   0 128
23.143 4.317 12.451   0   0 128
23.145 4.500 10.818   0   0 128
23.144 4.500 12.706   0   0 128
23.145 4.752 10.566   0   0 128
23.145 4.752 12.958   0   0 128
23.144 5.005 10.349   0   0 128
23.144 5.005 13.175   0   0 128
23.142 5.263 10.238   0   0 128
23.142 5.263 13.286   0   0 128
23.140 5.518 10.237   0   0 128
23.140 5.518 13.287   0   0 128
23.141 5.768 10.237   0   0 128
23.141 5.768 13.287   0   0 128
23.141 6.019 10.237   0   0 128
23.141 6.019 13.287   0   0 128
23.098 6.229 10.237   0   0 128
23.098 6.229 13.287   0   0 128
23.143 6.457 10.311   0   0 128
23.143 6.457 13.213   0   0 128
23.144 6.712 10.494   0   0 128
23.144 6.712 13.030   0   0 128
23.145 6.964 10.746   0   0 128
23.145 6.964 12.778   0   0 128
23.144 7.181 10.999   0   0 128
23.111 7.196 12.492   0   0 128
23.142 7.292 11.257   0   0 128
23.140 7.293 11.512   0   0 128
23.141 7.293 11.762   0   0 128
23.141 7.293 12.013   0   0 128
23.098 7.293 12.224   0   0 128
23.400 4.355 11.255   0   0 128
23.398 4.317 11.511   0   0 128
23.398 4.317 11.762   0   0 128
23.398 4.317 12.014   0   0 128
23.326 4.317 12.268   0   0 128
23.400 4.501 10.999   0   0 128
23.399 4.500 12.524   0   0 128
23.431 4.753 10.747   0   0 128
23.431 4.753 12.777   0   0 128
23.400 5.005 10.495   0   0 128
23.400 5.005 13.029   0   0 128
23.400 5.261 10.349   0   0 128
23.400 5.261 13.175   0   0 128
23.398 5.517 10.311   0   0 128
23.398 5.517 13.213   0   0 128
23.398 5.768 10.311   0   0 128
23.398 5.768 13.213   0   0 128
23.398 6.020 10.311   0   0 128
23.398 6.020 13.213   0   0 128
23.326 6.274 10.311   0   0 128
23.326 6.274 13.213   0   0 128
23.399 6.530 10.494   0   0 128
23.399 6.530 13.030   0   0 128
23.431 6.783 10.747   0   0 128
23.431 6.783 12.777   0   0 128
23.400 7.035 10.999   0   0 128
23.399 7.036 12.525   0   0 128
23.400 7.181 11.255   0   0 128
23.325 7.219 12.268   0   0 128
23.398 7.219 11.511   0   0 128
23.398 7.219 11.762   0   0 128
23.398 7.219 12.014   0   0 128
23.653 4.572 11.254   0   0 128
23.653 4.499 11.510   0   0 128
23.653 4.499 11.762   0   0 128
23.653 4.499 12.014   0   0 128
23.581 4.500 12.269   0   0 128
23.580 4.825 10.819   0   0 128
23.652 4.753 10.968   0   0 128
23.652 4.753 12.556   0   0 128
23.580 4.825 12.705   0   0 128
23.652 4.974 10.747   0   0 128
23.652 4.974 12.777   0   0 128
23.653 5.260 10.566   0   0 128
23.653 5.260 12.958   0   0 128
23.653 5.516 10.493   0   0 128
23.653 5.516 13.031   0   0 128
23.653 5.768 10.493   0   0 128
23.653 5.768 13.031   0   0 128
23.653 6.020 10.493   0   0 128
23.653 6.020 13.031   0   0 128
23.581 6.275 10.494   0   0 128
23.581 6.275 13.030   0   0 128
23.652 6.562 10.747   0   0 128
23.652 6.562 12.777   0   0 128
23.580 6.711 10.819   0   0 128
23.580 6.711 12.705   0   0 128
23.652 6.783 10.968   0   0 128
23.653 6.964 11.254   0   0 128
23.652 6.783 12.556   0   0 128
23.581 7.036 12.269   0   0 128
23.653 7.037 11.510   0   0 128
23.653 7.037 11.762   0   0 128
23.653 7.037 12.014   0   0 128
23.905 4.824 11.255   0   0 128
23.906 4.752 11.510   0   0 128
23.906 4.752 11.762   0   0 128
23.906 4.752 12.014   0   0 128
23.833 4.752 12.270   0   0 128
23.905 5.006 11.000   0   0 128
23.904 5.005 12.525   0   0 128
23.905 5.261 10.818   0   0 128
23.905 5.260 12.706   0   0 128
23.906 5.516 10.746   0   0 128
23.906 5.516 12.778   0   0 128
23.906 5.768 10.746   0   0 128
23.906 5.768 12.778   0   0 128
23.906 6.020 10.746   0   0 128
23.906 6.020 12.778   0   0 128
23.833 6.276 10.746   0   0 128
23.833 6.276 12.778   0   0 128
23.904 6.531 10.999   0   0 128
23.905 6.530 12.524   0   0 128
23.905 6.712 11.254   0   0 128
23.833 6.784 12.270   0   0 128
23.906 6.784 11.510   0   0 128
23.906 6.784 11.762   0   0 128
23.906 6.784 12.014   0   0 128
24.088 5.079 11.256   0   0 128
24.088 5.007 11.510   0   0 128
24.088 5.007 11.762   0   0 128
24.088 5.007 12.013   0   0 128
24.050 5.005 12.269   0   0 128
24.088 5.262 11.073   0   0 128
24.074 5.218 12.482   0   0 128
24.088 5.516 11.001   0   0 128
24.088 5.445 12.523   0   0 128
24.088 5.768 11.001   0   0 128
24.088 5.697 12.523   0   0 128
24.088 6.019 11.001   0   0 128
24.088 5.948 12.523   0   0 128
24.050 6.275 10.999   0   0 128
24.065 6.243 12.492   0   0 128
24.074 6.488 11.212   0   0 128
24.065 6.498 12.237   0   0 128
24.088 6.529 11.439   0   0 128
24.088 6.529 11.691   0   0 128
24.088 6.529 11.942   0   0 128
24.162 5.307 11.301   0   0 128
24.162 5.264 11.511   0   0 128
24.162 5.264 11.762   0   0 128
24.162 5.265 12.012   0   0 128
24.161 5.263 12.266   0   0 128
24.162 5.517 11.258   0   0 128
24.162 5.475 11.469   0   0 128
24.193 5.548 11.731   0   0 128
24.162 5.517 12.013   0   0 128
24.162 5.518 12.265   0   0 128
24.162 5.768 11.258   0   0 128
24.193 5.737 11.542   0   0 128
24.190 5.768 11.762   0   0 128
24.193 5.799 11.982   0   0 128
24.162 5.768 12.266   0   0 128
24.162 6.018 11.259   0   0 128
24.162 6.019 11.511   0   0 128
24.193 5.988 11.793   0   0 128
24.162 6.061 12.055   0   0 128
24.162 6.019 12.266   0   0 128
24.161 6.272 11.257   0   0 128
24.162 6.271 11.512   0   0 128
24.162 6.272 11.762   0   0 128
24.162 6.272 12.013   0   0 128
24.161 6.230 12.224   0   0 128
3 0 1 2   0   0 128
3 0 3 4   0   0 128
3 0 4 1   0   0 128
3 3 5 6   0   0 128
3 3 6 4   0   0 128
3 5 7 8   0   0 128
3 5 8 6   0   0 128
3 7 9 10   0   0 128
3 7 10 8   0   0 128
3 11 10 9   0   0 128
3 2 1 12   0   0 128
3 2 12 13   0   0 128
3 1 4 14   0   0 128
3 1 14 12   0   0 128
3 4 6 15   0   0 128
3 4 15 14   0   0 128
3 6 8 16   0   0 128
3 6 16 15   0   0 128
3 8 10 17   0   0 128
3 8 17 16   0   0 128
3 10 11 18   0   0 128
3 10 18 17   0   0 128
3 13 12 19   0   0 128
3 13 19 20   0   0 128
3 12 14 21   0   0 128
3 12 21 19   0   0 128
3 21 14 15   0   0 128
3 21 15 22   0   0 128
3 15 16 23   0   0 128
3 15 23 22   0   0 128
3 16 17 24   0   0 128
3 16 24 23   0   0 128
3 17 18 25   0   0 128
3 17 25 24   0   0 128
3 20 19 26   0   0 128
3 20 26 27   0   0 128
3 19 21 28   0   0 128
3 19 28 26   0   0 128
3 29 28 21   0   0 128
3 29 21 22   0   0 128
3 23 30 29   0   0 128
3 23 29 22   0   0 128
3 23 24 31   0   0 128
3 23 31 30   0   0 128
3 24 25 32   0   0 128
3 24 32 31   0   0 128
3 27 26 33   0   0 128
3 27 33 34   0   0 128
3 26 28 35   0   0 128
3 26 35 33   0   0 128
3 28 29 36   0   0 128
3 28 36 35   0   0 128
3 29 30 37   0   0 128
3 29 37 36   0   0 128
3 30 31 38   0   0 128
3 30 38 37   0   0 128
3 31 32 39   0   0 128
3 31 39 38   0   0 128
3 34 33 40   0   0 128
3 33 35 41   0   0 128
3 33 41 40   0   0 128
3 35 36 42   0   0 128
3 35 42 41   0   0 128
3 36 37 43   0   0 128
3 36 43 42   0   0 128
3 37 38 44   0   0 128
3 37 44 43   0   0 128
3 44 38 39   0   0 128
3 45 46 0   0   0 128
3 47 3 0   0   0 128
3 47 0 46   0   0 128
3 48 5 3   0   0 128
3 48 3 47   0   0 128
3 49 7 5   0   0 128
3 49 5 48   0   0 128
3 50 9 7   0   0 128
3 50 7 49   0   0 128
3 51 9 50   0   0 128
3 52 45 2   0   0 128
3 2 45 0   0   0 128
3 51 11 9   0   0 128
3 53 11 51   0   0 128
3 2 13 54   0   0 128
3 2 54 52   0   0 128
3 55 18 11   0   0 128
3 55 11 53   0   0 128
3 13 20 56   0   0 128
3 13 56 54   0   0 128
3 57 25 18   0   0 128
3 57 18 55   0   0 128
3 20 27 58   0   0 128
3 20 58 56   0   0 128
3 59 32 25   0   0 128
3 59 25 57   0   0 128
3 27 34 60   0   0 128
3 27 60 58   0   0 128
3 61 39 32   0   0 128
3 61 32 59   0   0 128
3 60 34 62   0   0 128
3 62 34 40   0   0 128
3 39 63 44   0   0 128
3 61 63 39   0   0 128
3 62 40 64   0   0 128
3 65 64 40   0   0 128
3 65 40 41   0   0 128
3 66 65 41   0   0 128
3 66 41 42   0   0 128
3 67 66 42   0   0 128
3 67 42 43   0   0 128
3 68 67 43   0   0 128
3 68 43 44   0   0 128
3 63 68 44   0   0 128
3 69 70 46   0   0 128
3 71 47 46   0   0 128
3 71 46 70   0   0 128
3 72 48 47   0   0 128
3 72 47 71   0   0 128
3 73 49 48   0   0 128
3 73 48 72   0   0 128
3 74 50 49   0   0 128
3 74 49 73   0   0 128
3 75 50 74   0   0 128
3 76 77 69   0   0 128
3 76 69 45   0   0 128
3 45 69 46   0   0 128
3 75 51 50   0   0 128
3 75 78 79   0   0 128
3 75 79 51   0   0 128
3 80 76 52   0   0 128
3 52 76 45   0   0 128
3 79 53 51   0   0 128
3 81 53 79   0   0 128
3 52 54 82   0   0 128
3 52 82 80   0   0 128
3 83 55 53   0   0 128
3 83 53 81   0   0 128
3 54 56 84   0   0 128
3 54 84 82   0   0 128
3 85 57 55   0   0 128
3 85 55 83   0   0 128
3 56 58 86   0   0 128
3 56 86 84   0   0 128
3 87 59 57   0   0 128
3 87 57 85   0   0 128
3 58 60 88   0   0 128
3 58 88 86   0   0 128
3 89 61 59   0   0 128
3 89 59 87   0   0 128
3 88 60 90   0   0 128
3 90 60 62   0   0 128
3 61 91 63   0   0 128
3 89 91 61   0   0 128
3 92 93 90   0   0 128
3 92 90 62   0   0 128
3 92 62 64   0   0 128
3 63 94 68   0   0 128
3 91 95 94   0   0 128
3 91 94 63   0   0 128
3 92 64 96   0   0 128
3 97 96 64   0   0 128
3 97 64 65   0   0 128
3 98 97 65   0   0 128
3 98 65 66   0   0 128
3 99 98 66   0   0 128
3 99 66 67   0   0 128
3 100 99 67   0   0 128
3 100 67 68   0   0 128
3 94 100 68   0   0 128
3 101 102 70   0   0 128
3 103 71 70   0   0 128
3 103 70 102   0   0 128
3 104 72 71   0   0 128
3 104 71 103   0   0 128
3 105 73 72   0   0 128
3 105 72 104   0   0 128
3 106 74 73   0   0 128
3 106 73 105   0   0 128
3 107 74 106   0   0 128
3 69 77 108   0   0 128
3 69 108 101   0   0 128
3 69 101 70   0   0 128
3 107 75 74   0   0 128
3 109 78 75   0   0 128
3 109 75 107   0   0 128
3 108 77 76   0   0 128
3 108 76 110   0   0 128
3 79 78 109   0   0 128
3 79 109 111   0   0 128
3 112 110 80   0   0 128
3 80 110 76   0   0 128
3 111 81 79   0   0 128
3 113 81 111   0   0 128
3 80 82 114   0   0 128
3 80 114 112   0   0 128
3 115 83 81   0   0 128
3 115 81 113   0   0 128
3 82 84 116   0   0 128
3 82 116 114   0   0 128
3 117 85 83   0   0 128
3 117 83 115   0   0 128
3 84 86 118   0   0 128
3 84 118 116   0   0 128
3 119 87 85   0   0 128
3 119 85 117   0   0 128
3 86 88 120   0   0 128
3 86 120 118   0   0 128
3 121 89 87   0   0 128
3 121 87 119   0   0 128
3 120 88 122   0   0 128
3 122 88 90   0   0 128
3 89 123 91   0   0 128
3 121 123 89   0   0 128
3 90 93 124   0   0 128
3 90 124 122   0   0 128
3 125 95 91   0   0 128
3 125 91 123   0   0 128
3 124 93 92   0   0 128
3 124 92 126   0   0 128
3 126 92 96   0   0 128
3 94 127 100   0   0 128
3 94 95 125   0   0 128
3 94 125 127   0   0 128
3 126 96 128   0   0 128
3 129 128 96   0   0 128
3 129 96 97   0   0 128
3 130 129 97   0   0 128
3 130 97 98   0   0 128
3 131 130 98   0   0 128
3 131 98 99   0   0 128
3 132 131 99   0   0 128
3 132 99 100   0   0 128
3 127 132 100   0   0 128
3 133 134 102   0   0 128
3 102 134 135   0   0 128
3 102 135 103   0   0 128
3 103 135 136   0   0 128
3 103 136 104   0   0 128
3 104 136 137   0   0 128
3 104 137 105   0   0 128
3 105 137 138   0   0 128
3 105 138 106   0   0 128
3 106 138 139   0   0 128
3 140 133 101   0   0 128
3 101 133 102   0   0 128
3 139 107 106   0   0 128
3 141 107 139   0   0 128
3 142 140 108   0   0 128
3 108 140 101   0   0 128
3 141 109 107   0   0 128
3 143 109 141   0   0 128
3 144 142 110   0   0 128
3 110 142 108   0   0 128
3 143 111 109   0   0 128
3 145 111 143   0   0 128
3 112 146 144   0   0 128
3 112 144 110   0   0 128
3 145 113 111   0   0 128
3 145 147 113   0   0 128
3 112 114 148   0   0 128
3 112 148 146   0   0 128
3 113 147 149   0   0 128
3 113 149 115   0   0 128
3 114 116 150   0   0 128
3 114 150 148   0   0 128
3 115 149 151   0   0 128
3 115 151 117   0   0 128
3 116 118 152   0   0 128
3 116 152 150   0   0 128
3 117 151 153   0   0 128
3 117 153 119   0   0 128
3 118 120 154   0   0 128
3 118 154 152   0   0 128
3 119 153 155   0   0 128
3 119 155 121   0   0 128
3 156 154 120   0   0 128
3 156 120 122   0   0 128
3 121 157 123   0   0 128
3 121 155 157   0   0 128
3 156 122 158   0   0 128
3 158 122 124   0   0 128
3 123 159 125   0   0 128
3 157 159 123   0   0 128
3 158 124 160   0   0 128
3 160 124 126   0   0 128
3 125 161 127   0   0 128
3 159 161 125   0   0 128
3 160 126 162   0   0 128
3 162 126 128   0   0 128
3 127 163 132   0   0 128
3 161 163 127   0   0 128
3 128 164 162   0   0 128
3 128 129 165   0   0 128
3 128 165 164   0   0 128
3 129 130 166   0   0 128
3 129 166 165   0   0 128
3 130 131 167   0   0 128
3 130 167 166   0   0 128
3 131 132 168   0   0 128
3 131 168 167   0   0 128
3 163 168 132   0   0 128
3 133 169 170   0   0 128
3 133 170 134   0   0 128
3 134 170 171   0   0 128
3 134 171 135   0   0 128
3 135 171 172   0   0 128
3 135 172 136   0   0 128
3 136 172 173   0   0 128
3 136 173 137   0   0 128
3 137 173 174   0   0 128
3 137 174 138   0   0 128
3 138 174 175   0   0 128
3 138 175 139   0   0 128
3 133 140 176   0   0 128
3 133 176 169   0   0 128
3 139 175 177   0   0 128
3 139 177 141   0   0 128
3 140 142 178   0   0 128
3 140 178 176   0   0 128
3 141 177 179   0   0 128
3 141 179 143   0   0 128
3 142 144 180   0   0 128
3 142 180 178   0   0 128
3 143 179 181   0   0 128
3 143 181 145   0   0 128
3 144 146 182   0   0 128
3 144 182 180   0   0 128
3 145 181 183   0   0 128
3 145 183 147   0   0 128
3 146 148 184   0   0 128
3 146 184 182   0   0 128
3 147 183 185   0   0 128
3 147 185 149   0   0 128
3 148 150 186   0   0 128
3 148 186 184   0   0 128
3 149 185 187   0   0 128
3 149 187 151   0   0 128
3 150 152 188   0   0 128
3 150 188 186   0   0 128
3 151 187 189   0   0 128
3 151 189 153   0   0 128
3 152 154 190   0   0 128
3 152 190 188   0   0 128
3 153 189 191   0   0 128
3 153 191 155   0   0 128
3 154 156 192   0   0 128
3 154 192 190   0   0 128
3 155 191 193   0   0 128
3 155 193 157   0   0 128
3 156 158 194   0   0 128
3 156 194 192   0   0 128
3 157 193 195   0   0 128
3 157 195 159   0   0 128
3 158 160 196   0   0 128
3 158 196 194   0   0 128
3 159 195 197   0   0 128
3 159 197 161   0   0 128
3 160 162 198   0   0 128
3 160 198 196   0   0 128
3 161 197 199   0   0 128
3 161 199 163   0   0 128
3 162 164 200   0   0 128
3 162 200 198   0   0 128
3 164 165 201   0   0 128
3 164 201 200   0   0 128
3 165 166 202   0   0 128
3 165 202 201   0   0 128
3 166 167 203   0   0 128
3 166 203 202   0   0 128
3 167 168 204   0   0 128
3 167 204 203   0   0 128
3 168 163 199   0   0 128
3 168 199 204   0   0 128
3 169 205 206   0   0 128
3 169 206 170   0   0 128
3 170 206 207   0   0 128
3 170 207 171   0   0 128
3 172 171 207   0   0 128
3 172 207 208   0   0 128
3 209 173 172   0   0 128
3 209 172 208   0   0 128
3 173 209 210   0   0 128
3 173 210 174   0   0 128
3 174 210 211   0   0 128
3 174 211 175   0   0 128
3 169 176 212   0   0 128
3 169 212 205   0   0 128
3 175 211 213   0   0 128
3 175 213 177   0   0 128
3 176 178 214   0   0 128
3 176 214 212   0   0 128
3 177 213 215   0   0 128
3 177 215 179   0   0 128
3 178 180 216   0   0 128
3 178 216 214   0   0 128
3 179 215 217   0   0 128
3 179 217 181   0   0 128
3 180 182 218   0   0 128
3 180 218 216   0   0 128
3 181 217 219   0   0 128
3 181 219 183   0   0 128
3 182 184 220   0   0 128
3 182 220 218   0   0 128
3 183 219 221   0   0 128
3 183 221 185   0   0 128
3 220 184 186   0   0 128
3 220 186 222   0   0 128
3 187 185 221   0   0 128
3 187 221 223   0   0 128
3 186 188 224   0   0 128
3 186 224 222   0   0 128
3 225 189 187   0   0 128
3 225 187 223   0   0 128
3 188 190 226   0   0 128
3 188 226 224   0   0 128
3 189 225 227   0   0 128
3 189 227 191   0   0 128
3 190 192 228   0   0 128
3 190 228 226   0   0 128
3 191 227 229   0   0 128
3 191 229 193   0   0 128
3 192 194 230   0   0 128
3 192 230 228   0   0 128
3 193 229 231   0   0 128
3 193 231 195   0   0 128
3 194 196 232   0   0 128
3 194 232 230   0   0 128
3 195 231 233   0   0 128
3 195 233 197   0   0 128
3 196 198 234   0   0 128
3 196 234 232   0   0 128
3 197 233 235   0   0 128
3 197 235 199   0   0 128
3 198 200 236   0   0 128
3 198 236 234   0   0 128
3 200 201 237   0   0 128
3 200 237 236   0   0 128
3 237 201 202   0   0 128
3 237 202 238   0   0 128
3 202 203 239   0   0 128
3 202 239 238   0   0 128
3 203 204 240   0   0 128
3 203 240 239   0   0 128
3 204 199 235   0   0 128
3 204 235 240   0   0 128
3 205 241 242   0   0 128
3 205 242 206   0   0 128
3 206 242 243   0   0 128
3 206 243 207   0   0 128
3 207 243 244   0   0 128
3 207 244 208   0   0 128
3 244 245 209   0   0 128
3 244 209 208   0   0 128
3 209 245 246   0   0 128
3 209 246 210   0   0 128
3 210 246 247   0   0 128
3 210 247 211   0   0 128
3 205 212 248   0   0 128
3 205 248 241   0   0 128
3 211 247 249   0   0 128
3 211 249 213   0   0 128
3 212 214 250   0   0 128
3 212 250 248   0   0 128
3 213 249 251   0   0 128
3 213 251 215   0   0 128
3 214 216 252   0   0 128
3 214 252 250   0   0 128
3 215 251 253   0   0 128
3 215 253 217   0   0 128
3 216 218 254   0   0 128
3 216 254 252   0   0 128
3 217 253 255   0   0 128
3 217 255 219   0   0 128
3 218 220 256   0   0 128
3 218 256 254   0   0 128
3 219 255 257   0   0 128
3 219 257 221   0   0 128
3 258 256 220   0   0 128
3 258 220 222   0   0 128
3 221 257 259   0   0 128
3 221 259 223   0   0 128
3 224 260 258   0   0 128
3 224 258 222   0   0 128
3 259 261 225   0   0 128
3 259 225 223   0   0 128
3 224 226 262   0   0 128
3 224 262 260   0   0 128
3 225 261 263   0   0 128
3 225 263 227   0   0 128
3 226 228 264   0   0 128
3 226 264 262   0   0 128
3 227 263 265   0   0 128
3 227 265 229   0   0 128
3 228 230 266   0   0 128
3 228 266 264   0   0 128
3 229 265 267   0   0 128
3 229 267 231   0   0 128
3 230 232 268   0   0 128
3 230 268 266   0   0 128
3 231 267 269   0   0 128
3 231 269 233   0   0 128
3 232 234 270   0   0 128
3 232 270 268   0   0 128
3 233 269 271   0   0 128
3 233 271 235   0   0 128
3 234 236 272   0   0 128
3 234 272 270   0   0 128
3 236 237 273   0   0 128
3 236 273 272   0   0 128
3 274 273 237   0   0 128
3 274 237 238   0   0 128
3 239 275 274   0   0 128
3 239 274 238   0   0 128
3 239 240 276   0   0 128
3 239 276 275   0   0 128
3 240 235 271   0   0 128
3 240 271 276   0   0 128
3 241 277 278   0   0 128
3 241 278 242   0   0 128
3 242 278 279   0   0 128
3 242 279 243   0   0 128
3 243 279 280   0   0 128
3 243 280 244   0   0 128
3 244 280 281   0   0 128
3 244 281 245   0   0 128
3 245 281 282   0   0 128
3 245 282 246   0   0 128
3 246 282 283   0   0 128
3 246 283 247   0   0 128
3 241 248 284   0   0 128
3 241 284 277   0   0 128
3 247 283 285   0   0 128
3 247 285 249   0   0 128
3 248 250 286   0   0 128
3 248 286 284   0   0 128
3 249 285 287   0   0 128
3 249 287 251   0   0 128
3 250 252 288   0   0 128
3 250 288 286   0   0 128
3 251 287 289   0   0 128
3 251 289 253   0   0 128
3 252 254 290   0   0 128
3 252 290 288   0   0 128
3 253 289 291   0   0 128
3 253 291 255   0   0 128
3 254 256 292   0   0 128
3 254 292 290   0   0 128
3 255 291 293   0   0 128
3 255 293 257   0   0 128
3 256 258 294   0   0 128
3 256 294 292   0   0 128
3 257 293 295   0   0 128
3 257 295 259   0   0 128
3 258 260 296   0   0 128
3 258 296 294   0   0 128
3 259 295 297   0   0 128
3 259 297 261   0   0 128
3 260 262 298   0   0 128
3 260 298 296   0   0 128
3 261 297 299   0   0 128
3 261 299 263   0   0 128
3 262 264 300   0   0 128
3 262 300 298   0   0 128
3 263 299 301   0   0 128
3 263 301 265   0   0 128
3 264 266 302   0   0 128
3 264 302 300   0   0 128
3 265 301 303   0   0 128
3 265 303 267   0   0 128
3 266 268 304   0   0 128
3 266 304 302   0   0 128
3 267 303 305   0   0 128
3 267 305 269   0   0 128
3 268 270 306   0   0 128
3 268 306 304   0   0 128
3 269 305 307   0   0 128
3 269 307 271   0   0 128
3 270 272 308   0   0 128
3 270 308 306   0   0 128
3 272 273 309   0   0 128
3 272 309 308   0   0 128
3 273 274 310   0   0 128
3 273 310 309   0   0 128
3 274 275 311   0   0 128
3 274 311 310   0   0 128
3 275 276 312   0   0 128
3 275 312 311   0   0 128
3 276 271 307   0   0 128
3 276 307 312   0   0 128
3 313 278 277   0   0 128
3 278 313 314   0   0 128
3 278 314 279   0   0 128
3 279 314 315   0   0 128
3 279 315 280   0   0 128
3 280 315 316   0   0 128
3 280 316 281   0   0 128
3 281 316 317   0   0 128
3 281 317 282   0   0 128
3 283 282 317   0   0 128
3 284 318 277   0   0 128
3 277 318 313   0   0 128
3 319 283 317   0   0 128
3 285 283 319   0   0 128
3 286 320 284   0   0 128
3 284 320 318   0   0 128
3 321 285 319   0   0 128
3 287 285 321   0   0 128
3 288 322 286   0   0 128
3 286 322 320   0   0 128
3 323 287 321   0   0 128
3 289 287 323   0   0 128
3 288 290 324   0   0 128
3 288 324 322   0   0 128
3 325 289 323   0   0 128
3 325 291 289   0   0 128
3 290 292 326   0   0 128
3 290 326 324   0   0 128
3 291 325 327   0   0 128
3 291 327 293   0   0 128
3 292 294 328   0   0 128
3 292 328 326   0   0 128
3 293 327 329   0   0 128
3 293 329 295   0   0 128
3 294 296 330   0   0 128
3 294 330 328   0   0 128
3 295 329 331   0   0 128
3 295 331 297   0   0 128
3 296 298 332   0   0 128
3 296 332 330   0   0 128
3 297 331 333   0   0 128
3 297 333 299   0   0 128
3 332 298 300   0   0 128
3 332 300 334   0   0 128
3 301 333 335   0   0 128
3 301 299 333   0   0 128
3 300 302 334   0   0 128
3 334 302 336   0   0 128
3 303 335 337   0   0 128
3 301 335 303   0   0 128
3 302 304 336   0   0 128
3 336 304 338   0   0 128
3 305 337 339   0   0 128
3 303 337 305   0   0 128
3 304 306 338   0   0 128
3 338 306 340   0   0 128
3 307 339 341   0   0 128
3 305 339 307   0   0 128
3 306 308 340   0   0 128
3 308 309 342   0   0 128
3 308 342 340   0   0 128
3 309 310 343   0   0 128
3 309 343 342   0   0 128
3 310 311 344   0   0 128
3 310 344 343   0   0 128
3 311 312 341   0   0 128
3 311 341 344   0   0 128
3 341 312 307   0   0 128
3 318 345 313   0   0 128
3 346 314 313   0   0 128
3 346 313 345   0   0 128
3 347 315 314   0   0 128
3 347 314 346   0   0 128
3 348 316 315   0   0 128
3 348 315 347   0   0 128
3 349 317 316   0   0 128
3 349 316 348   0   0 128
3 319 317 349   0   0 128
3 320 350 351   0   0 128
3 320 351 318   0   0 128
3 318 351 345   0   0 128
3 352 319 349   0   0 128
3 352 353 321   0   0 128
3 352 321 319   0   0 128
3 354 350 320   0   0 128
3 354 320 322   0   0 128
3 321 353 355   0   0 128
3 321 355 323   0   0 128
3 324 356 322   0   0 128
3 322 356 354   0   0 128
3 357 323 355   0   0 128
3 325 323 357   0   0 128
3 358 356 324   0   0 128
3 358 324 326   0   0 128
3 325 357 359   0   0 128
3 325 359 327   0   0 128
3 360 358 326   0   0 128
3 360 326 328   0   0 128
3 327 359 361   0   0 128
3 327 361 329   0   0 128
3 362 360 328   0   0 128
3 362 328 330   0   0 128
3 329 361 363   0   0 128
3 329 363 331   0   0 128
3 364 362 330   0   0 128
3 364 330 332   0   0 128
3 331 363 365   0   0 128
3 331 365 333   0   0 128
3 332 334 364   0   0 128
3 364 334 366   0   0 128
3 335 365 367   0   0 128
3 333 365 335   0   0 128
3 336 368 366   0   0 128
3 336 366 334   0   0 128
3 367 369 337   0   0 128
3 367 337 335   0   0 128
3 370 368 336   0   0 128
3 370 336 338   0   0 128
3 370 338 371   0   0 128
3 339 372 373   0   0 128
3 337 369 372   0   0 128
3 337 372 339   0   0 128
3 338 340 371   0   0 128
3 374 371 340   0   0 128
3 374 340 342   0   0 128
3 375 374 342   0   0 128
3 375 342 343   0   0 128
3 376 375 343   0   0 128
3 376 343 344   0   0 128
3 373 376 344   0   0 128
3 373 344 341   0   0 128
3 339 373 341   0   0 128
3 351 377 345   0   0 128
3 378 346 345   0   0 128
3 378 345 377   0   0 128
3 379 347 346   0   0 128
3 379 346 378   0   0 128
3 380 348 347   0   0 128
3 380 347 379   0   0 128
3 381 349 348   0   0 128
3 381 348 380   0   0 128
3 352 349 381   0   0 128
3 351 350 354   0   0 128
3 351 354 382   0   0 128
3 351 382 377   0   0 128
3 383 352 381   0   0 128
3 355 353 352   0   0 128
3 355 352 383   0   0 128
3 356 384 354   0   0 128
3 354 384 382   0   0 128
3 385 355 383   0   0 128
3 357 355 385   0   0 128
3 386 384 356   0   0 128
3 386 356 358   0   0 128
3 357 385 387   0   0 128
3 357 387 359   0   0 128
3 388 386 358   0   0 128
3 388 358 360   0   0 128
3 359 387 389   0   0 128
3 359 389 361   0   0 128
3 390 388 360   0   0 128
3 390 360 362   0   0 128
3 361 389 391   0   0 128
3 361 391 363   0   0 128
3 392 390 362   0   0 128
3 392 362 364   0   0 128
3 363 391 393   0   0 128
3 363 393 365   0   0 128
3 364 366 392   0   0 128
3 392 366 394   0   0 128
3 367 393 395   0   0 128
3 365 393 367   0   0 128
3 366 368 370   0   0 128
3 366 370 394   0   0 128
3 394 370 396   0   0 128
3 372 395 397   0   0 128
3 372 369 367   0   0 128
3 372 367 395   0   0 128
3 370 371 396   0   0 128
3 398 396 371   0   0 128
3 398 371 374   0   0 128
3 399 398 374   0   0 128
3 399 374 375   0   0 128
3 400 399 375   0   0 128
3 400 375 376   0   0 128
3 397 400 376   0   0 128
3 397 376 373   0   0 128
3 372 397 373   0   0 128
3 382 401 377   0   0 128
3 402 378 377   0   0 128
3 402 377 401   0   0 128
3 403 379 378   0   0 128
3 403 378 402   0   0 128
3 404 380 379   0   0 128
3 404 379 403   0   0 128
3 405 381 380   0   0 128
3 405 380 404   0   0 128
3 383 381 405   0   0 128
3 384 406 382   0   0 128
3 382 406 401   0   0 128
3 407 383 405   0   0 128
3 385 383 407   0   0 128
3 408 406 384   0   0 128
3 408 384 386   0   0 128
3 385 407 409   0   0 128
3 385 409 387   0   0 128
3 410 408 386   0   0 128
3 410 386 388   0   0 128
3 387 409 411   0   0 128
3 387 411 389   0   0 128
3 412 410 388   0   0 128
3 412 388 390   0   0 128
3 389 411 413   0   0 128
3 389 413 391   0   0 128
3 414 412 390   0   0 128
3 414 390 392   0   0 128
3 391 413 415   0   0 128
3 391 415 393   0   0 128
3 392 394 414   0   0 128
3 414 394 416   0   0 128
3 395 415 417   0   0 128
3 393 415 395   0   0 128
3 394 396 416   0   0 128
3 418 416 396   0   0 128
3 418 396 398   0   0 128
3 419 418 398   0   0 128
3 419 398 399   0   0 128
3 420 419 399   0   0 128
3 420 399 400   0   0 128
3 417 420 400   0   0 128
3 417 400 397   0   0 128
3 395 417 397   0   0 128
3 406 421 401   0   0 128
3 401 421 422   0   0 128
3 401 422 402   0   0 128
3 402 422 423   0   0 128
3 402 423 403   0   0 128
3 403 423 424   0   0 128
3 403 424 404   0   0 128
3 404 424 425   0   0 128
3 404 425 405   0   0 128
3 405 425 407   0   0 128
3 406 408 426   0   0 128
3 406 426 421   0   0 128
3 421 426 427   0   0 128
3 421 427 422   0   0 128
3 422 427 428   0   0 128
3 422 428 423   0   0 128
3 423 428 429   0   0 128
3 423 429 424   0   0 128
3 424 429 430   0   0 128
3 424 430 425   0   0 128
3 425 430 409   0   0 128
3 425 409 407   0   0 128
3 408 410 431   0   0 128
3 408 431 426   0   0 128
3 426 431 432   0   0 128
3 426 432 427   0   0 128
3 428 427 432   0   0 128
3 428 432 433   0   0 128
3 434 429 428   0   0 128
3 434 428 433   0   0 128
3 429 434 435   0   0 128
3 429 435 430   0   0 128
3 430 435 411   0   0 128
3 430 411 409   0   0 128
3 410 412 436   0   0 128
3 410 436 431   0   0 128
3 431 436 437   0   0 128
3 431 437 432   0   0 128
3 432 437 438   0   0 128
3 432 438 433   0   0 128
3 438 439 434   0   0 128
3 438 434 433   0   0 128
3 434 439 440   0   0 128
3 434 440 435   0   0 128
3 435 440 413   0   0 128
3 435 413 411   0   0 128
3 412 414 441   0   0 128
3 412 441 436   0   0 128
3 436 441 442   0   0 128
3 436 442 437   0   0 128
3 437 442 443   0   0 128
3 437 443 438   0   0 128
3 438 443 444   0   0 128
3 438 444 439   0   0 128
3 439 444 445   0   0 128
3 439 445 440   0   0 128
3 440 445 415   0   0 128
3 440 415 413   0   0 128
3 416 441 414   0   0 128
3 441 416 418   0   0 128
3 441 418 442   0   0 128
3 442 418 419   0   0 128
3 442 419 443   0   0 128
3 443 419 420   0   0 128
3 443 420 444   0   0 128
3 444 420 417   0   0 128
3 444 417 445   0   0 128
3 415 445 417   0   0 128
