ply
format ascii 1.0
comment ball mesh
element vertex 446
property float x
property float y
property float z
property uchar red
property uchar green
property uchar blue
element face 888
property list uchar int vertex_indices
property uchar red
property uchar green
property uchar blue
end_header
21.137 5.018 11.262   0   0 128
21.137 5.268 11.262   0   0 128
21.137 5.268 11.012   0   0 128
21.137 5.018 11.512   0   0 128
21.137 5.268 11.512   0   0 128
21.137 5.018 11.762   0   0 128
21.137 5.268 11.762   0   0 128
21.137 5.018 12.012   0   0 128
21.137 5.268 12.012   0   0 128
21.137 5.018 12.262   0   0 128
21.137 5.268 12.262   0   0 128
21.137 5.268 12.512   0   0 128
21.137 5.518 11.262   0   0 128
21.137 5.518 11.012   0   0 128
21.137 5.518 11.512   0   0 128
21.137 5.518 11.762   0   0 128
21.137 5.518 12.012   0   0 128
21.137 5.518 12.262   0   0 128
21.137 5.518 12.512   0   0 128
21.137 5.768 11.262   0   0 128
21.137 5.768 11.012   0   0 128
21.137 5.768 11.512   0   0 128
20.887 5.768 11.762   0   0 128
21.137 5.768 12.012   0   0 128
21.137 5.768 12.262   0   0 128
21.137 5.768 12.512   0   0 128
21.137 6.018 11.262   0   0 128
21.137 6.018 11.012   0   0 128
21.137 6.018 11.512   0   0 128
21.137 6.018 11.762   0   0 128
21.137 6.018 12.012   0   0 128
21.137 6.018 12.262   0   0 128
21.137 6.018 12.512   0   0 128
21.137 6.268 11.262   0   0 128
21.137 6.268 11.012   0   0 128
21.137 6.268 11.512   0   0 128
21.137 6.268 11.762   0   0 128
21.137 6.268 12.012   0   0 128
21.137 6.268 12.262   0   0 128
21.137 6.268 12.512   0   0 128
21.137 6.518 11.262   0   0 128
21.137 6.518 11.512   0   0 128
21.137 6.518 11.762   0   0 128
21.137 6.518 12.012   0   0 128
21.137 6.518 12.262   0   0 128
21.387 5.018 11.012   0   0 128
21.387 4.768 11.262   0   0 128
21.387 4.768 11.512   0   0 128
21.387 4.768 11.762   0   0 128
21.387 4.768 12.012   0   0 128
21.387 4.768 12.262   0   0 128
21.387 5.018 12.512   0   0 128
21.387 5.268 10.762   0   0 128
21.387 5.268 12.762   0   0 128
21.387 5.518 10.762   0   0 128
21.387 5.518 12.762   0   0 128
21.387 5.768 10.762   0   0 128
21.387 5.768 12.762   0   0 128
21.387 6.018 10.762   0   0 128
21.387 6.018 12.762   0   0 128
21.387 6.268 10.762   0   0 128
21.387 6.268 12.762   0   0 128
21.387 6.518 11.012   0   0 128
21.387 6.518 12.512   0   0 128
21.387 6.768 11.262   0   0 128
21.387 6.768 11.512   0   0 128
21.387 6.768 11.762   0   0 128
21.387 6.768 12.012   0   0 128
21.387 6.768 12.262   0   0 128
21.637 4.768 11.012   0   0 128
21.637 4.518 11.262   0   0 128
21.637 4.518 11.512   0   0 128
21.637 4.518 11.762   0   0 128
21.637 4.518 12.012   0   0 128
21.637 4.518 12.262   0   0 128
21.637 4.768 12.512   0   0 128
21.637 5.018 10.762   0   0 128
21.637 4.768 10.762   0   0 128
21.637 4.768 12.762   0   0 128
21.637 5.018 12.762   0   0 128
21.637 5.268 10.512   0   0 128
21.637 5.268 13.012   0   0 128
21.637 5.518 10.512   0   0 128
21.637 5.518 13.012   0   0 128
21.637 5.768 10.512   0   0 128
21.637 5.768 13.012   0   0 128
21.637 6.018 10.512   0   0 128
21.637 6.018 13.012   0   0 128
21.637 6.268 10.512   0   0 128
21.637 6.268 13.012   0   0 128
21.637 6.518 10.762   0   0 128
21.637 6.518 12.762   0   0 128
21.637 6.768 11.012   0   0 128
21.637 6.768 10.762   0   0 128
21.637 6.768 12.512   0   0 128
21.637 6.768 12.762   0   0 128
21.637 7.018 11.262   0   0 128
21.637 7.018 11.512   0   0 128
21.637 7.018 11.762   0   0 128
21.637 7.018 12.012   0   0 128
21.637 7.018 12.262   0   0 128
21.887 4.518 11.012   0   0 128
21.887 4.268 11.262   0   0 128
21.887 4.268 11.512   0   0 128
21.887 4.268 11.762   0   0 128
21.887 4.268 12.012   0   0 128
21.887 4.268 12.262   0   0 128
21.887 4.518 12.512   0   0 128
21.887 4.768 10.762   0   0 128
21.887 4.768 12.762   0   0 128
21.887 5.018 10.512   0   0 128
21.887 5.018 13.012   0   0 128
21.887 5.268 10.262   0   0 128
21.887 5.268 13.262   0   0 128
21.887 5.518 10.262   0   0 128
21.887 5.518 13.262   0   0 128
21.887 5.768 10.262   0   0 128
21.887 5.768 13.262   0   0 128
21.887 6.018 10.262   0   0 128
21.887 6.018 13.262   0   0 128
21.887 6.268 10.262   0   0 128
21.887 6.268 13.262   0   0 128
21.887 6.518 10.512   0   0 128
21.887 6.518 13.012   0   0 128
21.887 6.768 10.762   0   0 128
21.887 6.768 12.762   0   0 128
21.887 7.018 11.012   0   0 128
21.887 7.018 12.512   0   0 128
21.887 7.268 11.262   0   0 128
21.887 7.268 11.512   0   0 128
21.887 7.268 11.762   0   0 128
21.887 7.268 12.012   0   0 128
21.887 7.268 12.262   0   0 128
22.137 4.268 11.012   0   0 128
22.137 4.268 11.262   0   0 128
22.137 4.268 11.512   0   0 128
22.137 4.268 11.762   0   0 128
22.137 4.268 12.012   0   0 128
22.137 4.268 12.262   0   0 128
22.137 4.268 12.512   0   0 128
22.137 4.518 10.762   0   0 128
22.137 4.518 12.762   0   0 128
22.137 4.768 10.512   0   0 128
22.137 4.768 13.012   0   0 128
22.137 5.018 10.262   0   0 128
22.137 5.018 13.262   0   0 128
22.137 5.268 10.262   0   0 128
22.137 5.268 13.262   0   0 128
22.137 5.518 10.262   0   0 128
22.137 5.518 13.262   0   0 128
22.137 5.768 10.262   0   0 128
22.137 5.768 13.262   0   0 128
22.137 6.018 10.262   0   0 128
22.137 6.018 13.262   0   0 128
22.137 6.268 10.262   0   0 128
22.137 6.268 13.262   0   0 128
22.137 6.518 10.262   0   0 128
22.137 6.518 13.262   0   0 128
22.137 6.768 10.512   0   0 128
22.137 6.768 13.012   0   0 128
22.137 7.018 10.762   0   0 128
22.137 7.018 12.762   0   0 128
22.137 7.268 11.012   0   0 128
22.137 7.268 12.512   0   0 128
22.137 7.268 11.262   0   0 128
22.137 7.268 11.512   0   0 128
22.137 7.268 11.762   0   0 128
22.137 7.268 12.012   0   0 128
22.137 7.268 12.262   0   0 128
22.387 4.268 11.012   0   0 128
22.387 4.268 11.262   0   0 128
22.387 4.268 11.512   0   0 128
22.387 4.268 11.762   0   0 128
22.387 4.268 12.012   0   0 128
22.387 4.268 12.262   0   0 128
22.387 4.268 12.512   0   0 128
22.387 4.518 10.762   0   0 128
22.387 4.518 12.762   0   0 128
22.387 4.768 10.512   0   0 128
22.387 4.768 13.012   0   0 128
22.387 5.018 10.262   0   0 128
22.387 5.018 13.262   0   0 128
22.387 5.268 10.262   0   0 128
22.387 5.268 13.262   0   0 128
22.387 5.518 10.262   0   0 128
22.387 5.518 13.262   0   0 128
22.387 5.768 10.262   0   0 128
22.387 5.768 13.262   0   0 128
22.387 6.018 10.262   0   0 128
22.387 6.018 13.262   0   0 128
22.387 6.268 10.262   0   0 128
22.387 6.268 13.262   0   0 128
22.387 6.518 10.262   0   0 128
22.387 6.518 13.262   0   0 128
22.387 6.768 10.512   0   0 128
22.387 6.768 13.012   0   0 128
22.387 7.018 10.762   0   0 128
22.387 7.018 12.762   0   0 128
22.387 7.268 11.012   0   0 128
22.387 7.268 12.512   0   0 128
22.387 7.268 11.262   0   0 128
22.387 7.268 11.512   0   0 128
22.387 7.268 11.762   0   0 128
22.387 7.268 12.012   0   0 128
22.387 7.268 12.262   0   0 128
22.637 4.268 11.012   0   0 128
22.637 4.268 11.262   0   0 128
22.637 4.268 11.512   0   0 128
22.637 4.018 11.762   0   0 128
22.637 4.268 12.012   0   0 128
22.637 4.268 12.262   0   0 128
22.637 4.268 12.512   0   0 128
22.637 4.518 10.762   0   0 128
22.637 4.518 12.762   0   0 128
22.637 4.768 10.512   0   0 128
22.637 4.768 13.012   0   0 128
22.637 5.018 10.262   0   0 128
22.637 5.018 13.262   0   0 128
22.637 5.268 10.262   0   0 128
22.637 5.268 13.262   0   0 128
22.637 5.518 10.262   0   0 128
22.637 5.518 13.262   0   0 128
22.637 5.768 10.012   0   0 128
22.637 5.768 13.512   0   0 128
22.637 6.018 10.262   0   0 128
22.637 6.018 13.262   0   0 128
22.637 6.268 10.262   0   0 128
22.637 6.268 13.262   0   0 128
22.637 6.518 10.262   0   0 128
22.637 6.518 13.262   0   0 128
22.637 6.768 10.512   0   0 128
22.637 6.768 13.012   0   0 128
22.637 7.018 10.762   0   0 128
22.637 7.018 12.762   0   0 128
22.637 7.268 11.012   0   0 128
22.637 7.268 12.512   0   0 128
22.637 7.268 11.262   0   0 128
22.637 7.268 11.512   0   0 128
22.637 7.518 11.762   0   0 128
22.637 7.268 12.012   0   0 128
22.637 7.268 12.262   0   0 128
22.887 4.268 11.012   0   0 128
22.887 4.268 11.262   0   0 128
22.887 4.268 11.512   0   0 128
22.887 4.268 11.762   0   0 128
22.887 4.268 12.012   0   0 128
22.887 4.268 12.262   0   0 128
22.887 4.268 12.512   0   0 128
22.887 4.518 10.762   0   0 128
22.887 4.518 12.762   0   0 128
22.887 4.768 10.512   0   0 128
22.887 4.768 13.012   0   0 128
22.887 5.018 10.262   0   0 128
22.887 5.018 13.262   0   0 128
22.887 5.268 10.262   0   0 128
22.887 5.268 13.262   0   0 128
22.887 5.518 10.262   0   0 128
22.887 5.518 13.262   0   0 128
22.887 5.768 10.262   0   0 128
22.887 5.768 13.262   0   0 128
22.887 6.018 10.262   0   0 128
22.887 6.018 13.262   0   0 128
22.887 6.268 10.262   0   0 128
22.887 6.268 13.262   0   0 128
22.887 6.518 10.262   0   0 128
22.887 6.518 13.262   0   0 128
22.887 6.768 10.512   0   0 128
22.887 6.768 13.012   0   0 128
22.887 7.018 10.762   0   0 128
22.887 7.018 12.762   0   0 128
22.887 7.268 11.012   0   0 128
22.887 7.268 12.512   0   0 128
22.887 7.268 11.262   0   0 128
22.887 7.268 11.512   0   0 128
22.887 7.268 11.762   0   0 128
22.887 7.268 12.012   0   0 128
22.887 7.268 12.262   0   0 128
23.137 4.268 11.012   0   0 128
23.137 4.268 11.262   0   0 128
23.137 4.268 11.512   0   0 128
23.137 4.268 11.762   0   0 128
23.137 4.268 12.012   0   0 128
23.137 4.268 12.262   0   0 128
23.137 4.268 12.512   0   0 128
23.137 4.518 10.762   0   0 128
23.137 4.518 12.762   0   0 128
23.137 4.768 10.512   0   0 128
23.137 4.768 13.012   0   0 128
23.137 5.018 10.262   0   0 128
23.137 5.018 13.262   0   0 128
23.137 5.268 10.262   0   0 128
23.137 5.268 13.262   0   0 128
23.137 5.518 10.262   0   0 128
23.137 5.518 13.262   0   0 128
23.137 5.768 10.262   0   0 128
23.137 5.768 13.262   0   0 128
23.137 6.018 10.262   0   0 128
23.137 6.018 13.262   0   0 128
23.137 6.268 10.262   0   0 128
23.137 6.268 13.262   0   0 128
23.137 6.518 10.262   0   0 128
23.137 6.518 13.262   0   0 128
23.137 6.768 10.512   0   0 128
23.137 6.768 13.012   0   0 128
23.137 7.018 10.762   0   0 128
23.137 7.018 12.762   0   0 128
23.137 7.268 11.012   0   0 128
23.137 7.268 12.512   0   0 128
23.137 7.268 11.262   0   0 128
23.137 7.268 11.512   0   0 128
23.137 7.268 11.762   0   0 128
23.137 7.268 12.012   0   0 128
23.137 7.268 12.262   0   0 128
23.387 4.268 11.262   0   0 128
23.387 4.268 11.512   0   0 128
23.387 4.268 11.762   0   0 128
23.387 4.268 12.012   0   0 128
23.387 4.268 12.262   0   0 128
23.387 4.518 11.012   0   0 128
23.387 4.518 12.512   0   0 128
23.387 4.768 10.762   0   0 128
23.387 4.768 12.762   0   0 128
23.387 5.018 10.512   0   0 128
23.387 5.018 13.012   0   0 128
23.387 5.268 10.262   0   0 128
23.387 5.268 13.262   0   0 128
23.387 5.518 10.262   0   0 128
23.387 5.518 13.262   0   0 128
23.387 5.768 10.262   0   0 128
23.387 5.768 13.262   0   0 128
23.387 6.018 10.262   0   0 128
23.387 6.018 13.262   0   0 128
23.387 6.268 10.262   0   0 128
23.387 6.268 13.262   0   0 128
23.387 6.518 10.512   0   0 128
23.387 6.518 13.012   0   0 128
23.387 6.768 10.762   0   0 128
23.387 6.768 12.762   0   0 128
23.387 7.018 11.012   0   0 128
23.387 7.018 12.512   0   0 128
23.387 7.268 11.262   0   0 128
23.387 7.268 12.262   0   0 128
23.387 7.268 11.512   0   0 128
23.387 7.268 11.762   0   0 128
23.387 7.268 12.012   0   0 128
23.637 4.518 11.262   0   0 128
23.637 4.518 11.512   0   0 128
23.637 4.518 11.762   0   0 128
23.637 4.518 12.012   0   0 128
23.637 4.518 12.262   0   0 128
23.637 4.768 10.762   0   0 128
23.637 4.768 11.012   0   0 128
23.637 4.768 12.512   0   0 128
23.637 4.768 12.762   0   0 128
23.637 5.018 10.762   0   0 128
23.637 5.018 12.762   0   0 128
23.637 5.268 10.512   0   0 128
23.637 5.268 13.012   0   0 128
23.637 5.518 10.512   0   0 128
23.637 5.518 13.012   0   0 128
23.637 5.768 10.512   0   0 128
23.637 5.768 13.012   0   0 128
23.637 6.018 10.512   0   0 128
23.637 6.018 13.012   0   0 128
23.637 6.268 10.512   0   0 128
23.637 6.268 13.012   0   0 128
23.637 6.518 10.762   0   0 128
23.637 6.518 12.762   0   0 128
23.637 6.768 10.762   0   0 128
23.637 6.768 12.762   0   0 128
23.637 6.768 11.012   0   0 128
23.637 7.018 11.262   0   0 128
23.637 6.768 12.512   0   0 128
23.637 7.018 12.262   0   0 128
23.637 7.018 11.512   0   0 128
23.637 7.018 11.762   0   0 128
23.637 7.018 12.012   0   0 128
23.887 4.768 11.262   0   0 128
23.887 4.768 11.512   0   0 128
23.887 4.768 11.762   0   0 128
23.887 4.768 12.012   0   0 128
23.887 4.768 12.262   0   0 128
23.887 5.018 11.012   0   0 128
23.887 5.018 12.512   0   0 128
23.887 5.268 10.762   0   0 128
23.887 5.268 12.762   0   0 128
23.887 5.518 10.762   0   0 128
23.887 5.518 12.762   0   0 128
23.887 5.768 10.762   0   0 128
23.887 5.768 12.762   0   0 128
23.887 6.018 10.762   0   0 128
23.887 6.018 12.762   0   0 128
23.887 6.268 10.762   0   0 128
23.887 6.268 12.762   0   0 128
23.887 6.518 11.012   0   0 128
23.887 6.518 12.512   0   0 128
23.887 6.768 11.262   0   0 128
23.887 6.768 12.262   0   0 128
23.887 6.768 11.512   0   0 128
23.887 6.768 11.762   0   0 128
23.887 6.768 12.012   0   0 128
24.137 5.018 11.262   0   0 128
24.137 5.018 11.512   0   0 128
24.137 5.018 11.762   0   0 128
24.137 5.018 12.012   0   0 128
24.137 5.018 12.262   0   0 128
24.137 5.268 11.012   0   0 128
24.137 5.268 12.512   0   0 128
24.137 5.518 11.012   0   0 128
24.137 5.518 12.512   0   0 128
24.137 5.768 11.012   0   0 128
24.137 5.768 12.512   0   0 128
24.137 6.018 11.012   0   0 128
24.137 6.018 12.512   0   0 128
24.137 6.268 11.012   0   0 128
24.137 6.268 12.512   0   0 128
24.137 6.518 11.262   0   0 128
24.137 6.518 12.262   0   0 128
24.137 6.518 11.512   0   0 128
24.137 6.518 11.762   0   0 128
24.137 6.518 12.012   0   0 128
24.137 5.268 11.262   0   0 128
24.137 5.268 11.512   0   0 128
24.137 5.268 11.762   0   0 128
24.137 5.268 12.012   0   0 128
24.137 5.268 12.262   0   0 128
24.137 5.518 11.262   0   0 128
24.137 5.518 11.512   0   0 128
24.137 5.518 11.762   0   0 128
24.137 5.518 12.012   0   0 128
24.137 5.518 12.262   0   0 128
24.137 5.768 11.262   0   0 128
24.137 5.768 11.512   0   0 128
24.387 5.768 11.762   0   0 128
24.137 5.768 12.012   0   0 128
24.137 5.768 12.262   0   0 128
24.137 6.018 11.262   0   0 128
24.137 6.018 11.512   0   0 128
24.137 6.018 11.762   0   0 128
24.137 6.018 12.012   0   0 128
24.137 6.018 12.262   0   0 128
24.137 6.268 11.262   0   0 128
24.137 6.268 11.512   0   0 128
24.137 6.268 11.762   0   0 128
24.137 6.268 12.012   0   0 128
24.137 6.268 12.262   0   0 128
3 0 1 2   0   0 128
3 0 3 4   0   0 128
3 0 4 1   0   0 128
3 3 5 6   0   0 128
3 3 6 4   0   0 128
3 5 7 8   0   0 128
3 5 8 6   0   0 128
3 7 9 10   0   0 128
3 7 10 8   0   0 128
3 11 10 9   0   0 128
3 2 1 12   0   0 128
3 2 12 13   0   0 128
3 1 4 14   0   0 128
3 1 14 12   0   0 128
3 4 6 15   0   0 128
3 4 15 14   0   0 128
3 6 8 16   0   0 128
3 6 16 15   0   0 128
3 8 10 17   0   0 128
3 8 17 16   0   0 128
3 10 11 18   0   0 128
3 10 18 17   0   0 128
3 13 12 19   0   0 128
3 13 19 20   0   0 128
3 12 14 21   0   0 128
3 12 21 19   0   0 128
3 21 14 15   0   0 128
3 21 15 22   0   0 128
3 15 16 23   0   0 128
3 15 23 22   0   0 128
3 16 17 24   0   0 128
3 16 24 23   0   0 128
3 17 18 25   0   0 128
3 17 25 24   0   0 128
3 20 19 26   0   0 128
3 20 26 27   0   0 128
3 19 21 28   0   0 128
3 19 28 26   0   0 128
3 29 28 21   0   0 128
3 29 21 22   0   0 128
3 23 30 29   0   0 128
3 23 29 22   0   0 128
3 23 24 31   0   0 128
3 23 31 30   0   0 128
3 24 25 32   0   0 128
3 24 32 31   0   0 128
3 27 26 33   0   0 128
3 27 33 34   0   0 128
3 26 28 35   0   0 128
3 26 35 33   0   0 128
3 28 29 36   0   0 128
3 28 36 35   0   0 128
3 29 30 37   0   0 128
3 29 37 36   0   0 128
3 30 31 38   0   0 128
3 30 38 37   0   0 128
3 31 32 39   0   0 128
3 31 39 38   0   0 128
3 34 33 40   0   0 128
3 33 35 41   0   0 128
3 33 41 40   0   0 128
3 35 36 42   0   0 128
3 35 42 41   0   0 128
3 36 37 43   0   0 128
3 36 43 42   0   0 128
3 37 38 44   0   0 128
3 37 44 43   0   0 128
3 44 38 39   0   0 128
3 45 46 0   0   0 128
3 47 3 0   0   0 128
3 47 0 46   0   0 128
3 48 5 3   0   0 128
3 48 3 47   0   0 128
3 49 7 5   0   0 128
3 49 5 48   0   0 128
3 50 9 7   0   0 128
3 50 7 49   0   0 128
3 51 9 50   0   0 128
3 52 45 2   0   0 128
3 2 45 0   0   0 128
3 51 11 9   0   0 128
3 53 11 51   0   0 128
3 2 13 54   0   0 128
3 2 54 52   0   0 128
3 55 18 11   0   0 128
3 55 11 53   0   0 128
3 13 20 56   0   0 128
3 13 56 54   0   0 128
3 57 25 18   0   0 128
3 57 18 55   0   0 128
3 20 27 58   0   0 128
3 20 58 56   0   0 128
3 59 32 25   0   0 128
3 59 25 57   0   0 128
3 27 34 60   0   0 128
3 27 60 58   0   0 128
3 61 39 32   0   0 128
3 61 32 59   0   0 128
3 60 34 62   0   0 128
3 62 34 40   0   0 128
3 39 63 44   0   0 128
3 61 63 39   0   0 128
3 62 40 64   0   0 128
3 65 64 40   0   0 128
3 65 40 41   0   0 128
3 66 65 41   0   0 128
3 66 41 42   0   0 128
3 67 66 42   0   0 128
3 67 42 43   0   0 128
3 68 67 43   0   0 128
3 68 43 44   0   0 128
3 63 68 44   0   0 128
3 69 70 46   0   0 128
3 71 47 46   0   0 128
3 71 46 70   0   0 128
3 72 48 47   0   0 128
3 72 47 71   0   0 128
3 73 49 48   0   0 128
3 73 48 72   0   0 128
3 74 50 49   0   0 128
3 74 49 73   0   0 128
3 75 50 74   0   0 128
3 76 77 69   0   0 128
3 76 69 45   0   0 128
3 45 69 46   0   0 128
3 75 51 50   0   0 128
3 75 78 79   0   0 128
3 75 79 51   0   0 128
3 80 76 52   0   0 128
3 52 76 45   0   0 128
3 79 53 51   0   0 128
3 81 53 79   0   0 128
3 52 54 82   0   0 128
3 52 82 80   0   0 128
3 83 55 53   0   0 128
3 83 53 81   0   0 128
3 54 56 84   0   0 128
3 54 84 82   0   0 128
3 85 57 55   0   0 128
3 85 55 83   0   0 128
3 56 58 86   0   0 128
3 56 86 84   0   0 128
3 87 59 57   0   0 128
3 87 57 85   0   0 128
3 58 60 88   0   0 128
3 58 88 86   0   0 128
3 89 61 59   0   0 128
3 89 59 87   0   0 128
3 88 60 90   0   0 128
3 90 60 62   0   0 128
3 61 91 63   0   0 128
3 89 91 61   0   0 128
3 92 93 90   0   0 128
3 92 90 62   0   0 128
3 92 62 64   0   0 128
3 63 94 68   0   0 128
3 91 95 94   0   0 128
3 91 94 63   0   0 128
3 92 64 96   0   0 128
3 97 96 64   0   0 128
3 97 64 65   0   0 128
3 98 97 65   0   0 128
3 98 65 66   0   0 128
3 99 98 66   0   0 128
3 99 66 67   0   0 128
3 100 99 67   0   0 128
3 100 67 68   0   0 128
3 94 100 68   0   0 128
3 101 102 70   0   0 128
3 103 71 70   0   0 128
3 103 70 102   0   0 128
3 104 72 71   0   0 128
3 104 71 103   0   0 128
3 105 73 72   0   0 128
3 105 72 104   0   0 128
3 106 74 73   0   0 128
3 106 73 105   0   0 128
3 107 74 106   0   0 128
3 69 77 108   0   0 128
3 69 108 101   0   0 128
3 69 101 70   0   0 128
3 107 75 74   0   0 128
3 109 78 75   0   0 128
3 109 75 107   0   0 128
3 108 77 76   0   0 128
3 108 76 110   0   0 128
3 79 78 109   0   0 128
3 79 109 111   0   0 128
3 112 110 80   0   0 128
3 80 110 76   0   0 128
3 111 81 79   0   0 128
3 113 81 111   0   0 128
3 80 82 114   0   0 128
3 80 114 112   0   0 128
3 115 83 81   0   0 128
3 115 81 113   0   0 128
3 82 84 116   0   0 128
3 82 116 114   0   0 128
3 117 85 83   0   0 128
3 117 83 115   0   0 128
3 84 86 118   0   0 128
3 84 118 116   0   0 128
3 119 87 85   0   0 128
3 119 85 117   0   0 128
3 86 88 120   0   0 128
3 86 120 118   0   0 128
3 121 89 87   0   0 128
3 121 87 119   0   0 128
3 120 88 122   0   0 128
3 122 88 90   0   0 128
3 89 123 91   0   0 128
3 121 123 89   0   0 128
3 90 93 124   0   0 128
3 90 124 122   0   0 128
3 125 95 91   0   0 128
3 125 91 123   0   0 128
3 124 93 92   0   0 128
3 124 92 126   0   0 128
3 126 92 96   0   0 128
3 94 127 100   0   0 128
3 94 95 125   0   0 128
3 94 125 127   0   0 128
3 126 96 128   0   0 128
3 129 128 96   0   0 128
3 129 96 97   0   0 128
3 130 129 97   0   0 128
3 130 97 98   0   0 128
3 131 130 98   0   0 128
3 131 98 99   0   0 128
3 132 131 99   0   0 128
3 132 99 100   0   0 128
3 127 132 100   0   0 128
3 133 134 102   0   0 128
3 102 134 135   0   0 128
3 102 135 103   0   0 128
3 103 135 136   0   0 128
3 103 136 104   0   0 128
3 104 136 137   0   0 128
3 104 137 105   0   0 128
3 105 137 138   0   0 128
3 105 138 106   0   0 128
3 106 138 139   0   0 128
3 140 133 101   0   0 128
3 101 133 102   0   0 128
3 139 107 106   0   0 128
3 141 107 139   0   0 128
3 142 140 108   0   0 128
3 108 140 101   0   0 128
3 141 109 107   0   0 128
3 143 109 141   0   0 128
3 144 142 110   0   0 128
3 110 142 108   0   0 128
3 143 111 109   0   0 128
3 145 111 143   0   0 128
3 112 146 144   0   0 128
3 112 144 110   0   0 128
3 145 113 111   0   0 128
3 145 147 113   0   0 128
3 112 114 148   0   0 128
3 112 148 146   0   0 128
3 113 147 149   0   0 128
3 113 149 115   0   0 128
3 114 116 150   0   0 128
3 114 150 148   0   0 128
3 115 149 151   0   0 128
3 115 151 117   0   0 128
3 116 118 152   0   0 128
3 116 152 150   0   0 128
3 117 151 153   0   0 128
3 117 153 119   0   0 128
3 118 120 154   0   0 128
3 118 154 152   0   0 128
3 119 153 155   0   0 128
3 119 155 121   0   0 128
3 156 154 120   0   0 128
3 156 120 122   0   0 128
3 121 157 123   0   0 128
3 121 155 157   0   0 128
3 156 122 158   0   0 128
3 158 122 124   0   0 128
3 123 159 125   0   0 128
3 157 159 123   0   0 128
3 158 124 160   0   0 128
3 160 124 126   0   0 128
3 125 161 127   0   0 128
3 159 161 125   0   0 128
3 160 126 162   0   0 128
3 162 126 128   0   0 128
3 127 163 132   0   0 128
3 161 163 127   0   0 128
3 128 164 162   0   0 128
3 128 129 165   0   0 128
3 128 165 164   0   0 128
3 129 130 166   0   0 128
3 129 166 165   0   0 128
3 130 131 167   0   0 128
3 130 167 166   0   0 128
3 131 132 168   0   0 128
3 131 168 167   0   0 128
3 163 168 132   0   0 128
3 133 169 170   0   0 128
3 133 170 134   0   0 128
3 134 170 171   0   0 128
3 134 171 135   0   0 128
3 135 171 172   0   0 128
3 135 172 136   0   0 128
3 136 172 173   0   0 128
3 136 173 137   0   0 128
3 137 173 174   0   0 128
3 137 174 138   0   0 128
3 138 174 175   0   0 128
3 138 175 139   0   0 128
3 133 140 176   0   0 128
3 133 176 169   0   0 128
3 139 175 177   0   0 128
3 139 177 141   0   0 128
3 140 142 178   0   0 128
3 140 178 176   0   0 128
3 141 177 179   0   0 128
3 141 179 143   0   0 128
3 142 144 180   0   0 128
3 142 180 178   0   0 128
3 143 179 181   0   0 128
3 143 181 145   0   0 128
3 144 146 182   0   0 128
3 144 182 180   0   0 128
3 145 181 183   0   0 128
3 145 183 147   0   0 128
3 146 148 184   0   0 128
3 146 184 182   0   0 128
3 147 183 185   0   0 128
3 147 185 149   0   0 128
3 148 150 186   0   0 128
3 148 186 184   0   0 128
3 149 185 187   0   0 128
3 149 187 151   0   0 128
3 150 152 188   0   0 128
3 150 188 186   0   0 128
3 151 187 189   0   0 128
3 151 189 153   0   0 128
3 152 154 190   0   0 128
3 152 190 188   0   0 128
3 153 189 191   0   0 128
3 153 191 155   0   0 128
3 154 156 192   0   0 128
3 154 192 190   0   0 128
3 155 191 193   0   0 128
3 155 193 157   0   0 128
3 156 158 194   0   0 128
3 156 194 192   0   0 128
3 157 193 195   0   0 128
3 157 195 159   0   0 128
3 158 160 196   0   0 128
3 158 196 194   0   0 128
3 159 195 197   0   0 128
3 159 197 161   0   0 128
3 160 162 198   0   0 128
3 160 198 196   0   0 128
3 161 197 199   0   0 128
3 161 199 163   0   0 128
3 162 164 200   0   0 128
3 162 200 198   0   0 128
3 164 165 201   0   0 128
3 164 201 200   0   0 128
3 165 166 202   0   0 128
3 165 202 201   0   0 128
3 166 167 203   0   0 128
3 166 203 202   0   0 128
3 167 168 204   0   0 128
3 167 204 203   0   0 128
3 168 163 199   0   0 128
3 168 199 204   0   0 128
3 169 205 206   0   0 128
3 169 206 170   0   0 128
3 170 206 207   0   0 128
3 170 207 171   0   0 128
3 172 171 207   0   0 128
3 172 207 208   0   0 128
3 209 173 172   0   0 128
3 209 172 208   0   0 128
3 173 209 210   0   0 128
3 173 210 174   0   0 128
3 174 210 211   0   0 128
3 174 211 175   0   0 128
3 169 176 212   0   0 128
3 169 212 205   0   0 128
3 175 211 213   0   0 128
3 175 213 177   0   0 128
3 176 178 214   0   0 128
3 176 214 212   0   0 128
3 177 213 215   0   0 128
3 177 215 179   0   0 128
3 178 180 216   0   0 128
3 178 216 214   0   0 128
3 179 215 217   0   0 128
3 179 217 181   0   0 128
3 180 182 218   0   0 128
3 180 218 216   0   0 128
3 181 217 219   0   0 128
3 181 219 183   0   0 128
3 182 184 220   0   0 128
3 182 220 218   0   0 128
3 183 219 221   0   0 128
3 183 221 185   0   0 128
3 220 184 186   0   0 128
3 220 186 222   0   0 128
3 187 185 221   0   0 128
3 187 221 223   0   0 128
3 186 188 224   0   0 128
3 186 224 222   0   0 128
3 225 189 187   0   0 128
3 225 187 223   0   0 128
3 188 190 226   0   0 128
3 188 226 224   0   0 128
3 189 225 227   0   0 128
3 189 227 191   0   0 128
3 190 192 228   0   0 128
3 190 228 226   0   0 128
3 191 227 229   0   0 128
3 191 229 193   0   0 128
3 192 194 230   0   0 128
3 192 230 228   0   0 128
3 193 229 231   0   0 128
3 193 231 195   0   0 128
3 194 196 232   0   0 128
3 194 232 230   0   0 128
3 195 231 233   0   0 128
3 195 233 197   0   0 128
3 196 198 234   0   0 128
3 196 234 232   0   0 128
3 197 233 235   0   0 128
3 197 235 199   0   0 128
3 198 200 236   0   0 128
3 198 236 234   0   0 128
3 200 201 237   0   0 128
3 200 237 236   0   0 128
3 237 201 202   0   0 128
3 237 202 238   0   0 128
3 202 203 239   0   0 128
3 202 239 238   0   0 128
3 203 204 240   0   0 128
3 203 240 239   0   0 128
3 204 199 235   0   0 128
3 204 235 240   0   0 128
3 205 241 242   0   0 128
3 205 242 206   0   0 128
3 206 242 243   0   0 128
3 206 243 207   0   0 128
3 207 243 244   0   0 128
3 207 244 208   0   0 128
3 244 245 209   0   0 128
3 244 209 208   0   0 128
3 209 245 246   0   0 128
3 209 246 210   0   0 128
3 210 246 247   0   0 128
3 210 247 211   0   0 128
3 205 212 248   0   0 128
3 205 248 241   0   0 128
3 211 247 249   0   0 128
3 211 249 213   0   0 128
3 212 214 250   0   0 128
3 212 250 248   0   0 128
3 213 249 251   0   0 128
3 213 251 215   0   0 128
3 214 216 252   0   0 128
3 214 252 250   0   0 128
3 215 251 253   0   0 128
3 215 253 217   0   0 128
3 216 218 254   0   0 128
3 216 254 252   0   0 128
3 217 253 255   0   0 128
3 217 255 219   0   0 128
3 218 220 256   0   0 128
3 218 256 254   0   0 128
3 219 255 257   0   0 128
3 219 257 221   0   0 128
3 258 256 220   0   0 128
3 258 220 222   0   0 128
3 221 257 259   0   0 128
3 221 259 223   0   0 128
3 224 260 258   0   0 128
3 224 258 222   0   0 128
3 259 261 225   0   0 128
3 259 225 223   0   0 128
3 224 226 262   0   0 128
3 224 262 260   0   0 128
3 225 261 263   0   0 128
3 225 263 227   0   0 128
3 226 228 264   0   0 128
3 226 264 262   0   0 128
3 227 263 265   0   0 128
3 227 265 229   0   0 128
3 228 230 266   0   0 128
3 228 266 264   0   0 128
3 229 265 267   0   0 128
3 229 267 231   0   0 128
3 230 232 268   0   0 128
3 230 268 266   0   0 128
3 231 267 269   0   0 128
3 231 269 233   0   0 128
3 232 234 270   0   0 128
3 232 270 268   0   0 128
3 233 269 271   0   0 128
3 233 271 235   0   0 128
3 234 236 272   0   0 128
3 234 272 270   0   0 128
3 236 237 273   0   0 128
3 236 273 272   0   0 128
3 274 273 237   0   0 128
3 274 237 238   0   0 128
3 239 275 274   0   0 128
3 239 274 238   0   0 128
3 239 240 276   0   0 128
3 239 276 275   0   0 128
3 240 235 271   0   0 128
3 240 271 276   0   0 128
3 241 277 278   0   0 128
3 241 278 242   0   0 128
3 242 278 279   0   0 128
3 242 279 243   0   0 128
3 243 279 280   0   0 128
3 243 280 244   0   0 128
3 244 280 281   0   0 128
3 244 281 245   0   0 128
3 245 281 282   0   0 128
3 245 282 246   0   0 128
3 246 282 283   0   0 128
3 246 283 247   0   0 128
3 241 248 284   0   0 128
3 241 284 277   0   0 128
3 247 283 285   0   0 128
3 247 285 249   0   0 128
3 248 250 286   0   0 128
3 248 286 284   0   0 128
3 249 285 287   0   0 128
3 249 287 251   0   0 128
3 250 252 288   0   0 128
3 250 288 286   0   0 128
3 251 287 289   0   0 128
3 251 289 253   0   0 128
3 252 254 290   0   0 128
3 252 290 288   0   0 128
3 253 289 291   0   0 128
3 253 291 255   0   0 128
3 254 256 292   0   0 128
3 254 292 290   0   0 128
3 255 291 293   0   0 128
3 255 293 257   0   0 128
3 256 258 294   0   0 128
3 256 294 292   0   0 128
3 257 293 295   0   0 128
3 257 295 259   0   0 128
3 258 260 296   0   0 128
3 258 296 294   0   0 128
3 259 295 297   0   0 128
3 259 297 261   0   0 128
3 260 262 298   0   0 128
3 260 298 296   0   0 128
3 261 297 299   0   0 128
3 261 299 263   0   0 128
3 262 264 300   0   0 128
3 262 300 298   0   0 128
3 263 299 301   0   0 128
3 263 301 265   0   0 128
3 264 266 302   0   0 128
3 264 302 300   0   0 128
3 265 301 303   0   0 128
3 265 303 267   0   0 128
3 266 268 304   0   0 128
3 266 304 302   0   0 128
3 267 303 305   0   0 128
3 267 305 269   0   0 128
3 268 270 306   0   0 128
3 268 306 304   0   0 128
3 269 305 307   0   0 128
3 269 307 271   0   0 128
3 270 272 308   0   0 128
3 270 308 306   0   0 128
3 272 273 309   0   0 128
3 272 309 308   0   0 128
3 273 274 310   0   0 128
3 273 310 309   0   0 128
3 274 275 311   0   0 128
3 274 311 310   0   0 128
3 275 276 312   0   0 128
3 275 312 311   0   0 128
3 276 271 307   0   0 128
3 276 307 312   0   0 128
3 313 278 277   0   0 128
3 278 313 314   0   0 128
3 278 314 279   0   0 128
3 279 314 315   0   0 128
3 279 315 280   0   0 128
3 280 315 316   0   0 128
3 280 316 281   0   0 128
3 281 316 317   0   0 128
3 281 317 282   0   0 128
3 283 282 317   0   0 128
3 284 318 277   0   0 128
3 277 318 313   0   0 128
3 319 283 317   0   0 128
3 285 283 319   0   0 128
3 286 320 284   0   0 128
3 284 320 318   0   0 128
3 321 285 319   0   0 128
3 287 285 321   0   0 128
3 288 322 286   0   0 128
3 286 322 320   0   0 128
3 323 287 321   0   0 128
3 289 287 323   0   0 128
3 288 290 324   0   0 128
3 288 324 322   0   0 128
3 325 289 323   0   0 128
3 325 291 289   0   0 128
3 290 292 326   0   0 128
3 290 326 324   0   0 128
3 291 325 327   0   0 128
3 291 327 293   0   0 128
3 292 294 328   0   0 128
3 292 328 326   0   0 128
3 293 327 329   0   0 128
3 293 329 295   0   0 128
3 294 296 330   0   0 128
3 294 330 328   0   0 128
3 295 329 331   0   0 128
3 295 331 297   0   0 128
3 296 298 332   0   0 128
3 296 332 330   0   0 128
3 297 331 333   0   0 128
3 297 333 299   0   0 128
3 332 298 300   0   0 128
3 332 300 334   0   0 128
3 301 333 335   0   0 128
3 301 299 333   0   0 128
3 300 302 334   0   0 128
3 334 302 336   0   0 128
3 303 335 337   0   0 128
3 301 335 303   0   0 128
3 302 304 336   0   0 128
3 336 304 338   0   0 128
3 305 337 339   0   0 128
3 303 337 305   0   0 128
3 304 306 338   0   0 128
3 338 306 340   0   0 128
3 307 339 341   0   0 128
3 305 339 307   0   0 128
3 306 308 340   0   0 128
3 308 309 342   0   0 128
3 308 342 340   0   0 128
3 309 310 343   0   0 128
3 309 343 342   0   0 128
3 310 311 344   0   0 128
3 310 344 343   0   0 128
3 311 312 341   0   0 128
3 311 341 344   0   0 128
3 341 312 307   0   0 128
3 318 345 313   0   0 128
3 346 314 313   0   0 128
3 346 313 345   0   0 128
3 347 315 314   0   0 128
3 347 314 346   0   0 128
3 348 316 315   0   0 128
3 348 315 347   0   0 128
3 349 317 316   0   0 128
3 349 316 348   0   0 128
3 319 317 349   0   0 128
3 320 350 351   0   0 128
3 320 351 318   0   0 128
3 318 351 345   0   0 128
3 352 319 349   0   0 128
3 352 353 321   0   0 128
3 352 321 319   0   0 128
3 354 350 320   0   0 128
3 354 320 322   0   0 128
3 321 353 355   0   0 128
3 321 355 323   0   0 128
3 324 356 322   0   0 128
3 322 356 354   0   0 128
3 357 323 355   0   0 128
3 325 323 357   0   0 128
3 358 356 324   0   0 128
3 358 324 326   0   0 128
3 325 357 359   0   0 128
3 325 359 327   0   0 128
3 360 358 326   0   0 128
3 360 326 328   0   0 128
3 327 359 361   0   0 128
3 327 361 329   0   0 128
3 362 360 328   0   0 128
3 362 328 330   0   0 128
3 329 361 363   0   0 128
3 329 363 331   0   0 128
3 364 362 330   0   0 128
3 364 330 332   0   0 128
3 331 363 365   0   0 128
3 331 365 333   0   0 128
3 332 334 364   0   0 128
3 364 334 366   0   0 128
3 335 365 367   0   0 128
3 333 365 335   0   0 128
3 336 368 366   0   0 128
3 336 366 334   0   0 128
3 367 369 337   0   0 128
3 367 337 335   0   0 128
3 370 368 336   0   0 128
3 370 336 338   0   0 128
3 370 338 371   0   0 128
3 339 372 373   0   0 128
3 337 369 372   0   0 128
3 337 372 339   0   0 128
3 338 340 371   0   0 128
3 374 371 340   0   0 128
3 374 340 342   0   0 128
3 375 374 342   0   0 128
3 375 342 343   0   0 128
3 376 375 343   0   0 128
3 376 343 344   0   0 128
3 373 376 344   0   0 128
3 373 344 341   0   0 128
3 339 373 341   0   0 128
3 351 377 345   0   0 128
3 378 346 345   0   0 128
3 378 345 377   0   0 128
3 379 347 346   0   0 128
3 379 346 378   0   0 128
3 380 348 347   0   0 128
3 380 347 379   0   0 128
3 381 349 348   0   0 128
3 381 348 380   0   0 128
3 352 349 381   0   0 128
3 351 350 354   0   0 128
3 351 354 382   0   0 128
3 351 382 377   0   0 128
3 383 352 381   0   0 128
3 355 353 352   0   0 128
3 355 352 383   0   0 128
3 356 384 354   0   0 128
3 354 384 382   0   0 128
3 385 355 383   0   0 128
3 357 355 385   0   0 128
3 386 384 356   0   0 128
3 386 356 358   0   0 128
3 357 385 387   0   0 128
3 357 387 359   0   0 128
3 388 386 358   0   0 128
3 388 358 360   0   0 128
3 359 387 389   0   0 128
3 359 389 361   0   0 128
3 390 388 360   0   0 128
3 390 360 362   0   0 128
3 361 389 391   0   0 128
3 361 391 363   0   0 128
3 392 390 362   0   0 128
3 392 362 364   0   0 128
3 363 391 393   0   0 128
3 363 393 365   0   0 128
3 364 366 392   0   0 128
3 392 366 394   0   0 128
3 367 393 395   0   0 128
3 365 393 367   0   0 128
3 366 368 370   0   0 128
3 366 370 394   0   0 128
3 394 370 396   0   0 128
3 372 395 397   0   0 128
3 372 369 367   0   0 128
3 372 367 395   0   0 128
3 370 371 396   0   0 128
3 398 396 371   0   0 128
3 398 371 374   0   0 128
3 399 398 374   0   0 128
3 399 374 375   0   0 128
3 400 399 375   0   0 128
3 400 375 376   0   0 128
3 397 400 376   0   0 128
3 397 376 373   0   0 128
3 372 397 373   0   0 128
3 382 401 377   0   0 128
3 402 378 377   0   0 128
3 402 377 401   0   0 128
3 403 379 378   0   0 128
3 403 378 402   0   0 128
3 404 380 379   0   0 128
3 404 379 403   0   0 128
3 405 381 380   0   0 128
3 405 380 404   0   0 128
3 383 381 405   0   0 128
3 384 406 382   0   0 128
3 382 406 401   0   0 128
3 407 383 405   0   0 128
3 385 383 407   0   0 128
3 408 406 384   0   0 128
3 408 384 386   0   0 128
3 385 407 409   0   0 128
3 385 409 387   0   0 128
3 410 408 386   0   0 128
3 410 386 388   0   0 128
3 387 409 411   0   0 128
3 387 411 389   0   0 128
3 412 410 388   0   0 128
3 412 388 390   0   0 128
3 389 411 413   0   0 128
3 389 413 391   0   0 128
3 414 412 390   0   0 128
3 414 390 392   0   0 128
3 391 413 415   0   0 128
3 391 415 393   0   0 128
3 392 394 414   0   0 128
3 414 394 416   0   0 128
3 395 415 417   0   0 128
3 393 415 395   0   0 128
3 394 396 416   0   0 128
3 418 416 396   0   0 128
3 418 396 398   0   0 128
3 419 418 398   0   0 128
3 419 398 399   0   0 128
3 420 419 399   0   0 128
3 420 399 400   0   0 128
3 417 420 400   0   0 128
3 417 400 397   0   0 128
3 395 417 397   0   0 128
3 406 421 401   0   0 128
3 401 421 422   0   0 128
3 401 422 402   0   0 128
3 402 422 423   0   0 128
3 402 423 403   0   0 128
3 403 423 424   0   0 128
3 403 424 404   0   0 128
3 404 424 425   0   0 128
3 404 425 405   0   0 128
3 405 425 407   0   0 128
3 406 408 426   0   0 128
3 406 426 421   0   0 128
3 421 426 427   0   0 128
3 421 427 422   0   0 128
3 422 427 428   0   0 128
3 422 428 423   0   0 128
3 423 428 429   0   0 128
3 423 429 424   0   0 128
3 424 429 430   0   0 128
3 424 430 425   0   0 128
3 425 430 409   0   0 128
3 425 409 407   0   0 128
3 408 410 431   0   0 128
3 408 431 426   0   0 128
3 426 431 432   0   0 128
3 426 432 427   0   0 128
3 428 427 432   0   0 128
3 428 432 433   0   0 128
3 434 429 428   0   0 128
3 434 428 433   0   0 128
3 429 434 435   0   0 128
3 429 435 430   0   0 128
3 430 435 411   0   0 128
3 430 411 409   0   0 128
3 410 412 436   0   0 128
3 410 436 431   0   0 128
3 431 436 437   0   0 128
3 431 437 432   0   0 128
3 432 437 438   0   0 128
3 432 438 433   0   0 128
3 438 439 434   0   0 128
3 438 434 433   0   0 128
3 434 439 440   0   0 128
3 434 440 435   0   0 128
3 435 440 413   0   0 128
3 435 413 411   0   0 128
3 412 414 441   0   0 128
3 412 441 436   0   0 128
3 436 441 442   0   0 128
3 436 442 437   0   0 128
3 437 442 443   0   0 128
3 437 443 438   0   0 128
3 438 443 444   0   0 128
3 438 444 439   0   0 128
3 439 444 445   0   0 128
3 439 445 440   0   0 128
3 440 445 415   0   0 128
3 440 415 413   0   0 128
3 416 441 414   0   0 128
3 441 416 418   0   0 128
3 441 418 442   0   0 128
3 442 418 419   0   0 128
3 442 419 443   0   0 128
3 443 419 420   0   0 128
3 443 420 444   0   0 128
3 444 420 417   0   0 128
3 444 417 445   0   0 128
3 415 445 417   0   0 128
