ply
format ascii 1.0
comment ball mesh
element vertex 515
property float x
property float y
property float z
property uchar red
property uchar green
property uchar blue
element face 1026
property list uchar int vertex_indices
property uchar red
property uchar green
property uchar blue
end_header
21.573 5.010 11.746   0   0 128
21.463 5.236 11.788   0   0 128
21.527 5.225 11.521   0   0 128
21.537 5.192 12.003   0   0 128
21.463 5.447 11.491   0   0 128
21.527 5.477 11.269   0   0 128
21.431 5.480 11.714   0   0 128
21.463 5.447 12.001   0   0 128
21.536 5.445 12.256   0   0 128
21.463 5.744 11.280   0   0 128
21.573 5.702 11.054   0   0 128
21.431 5.670 11.524   0   0 128
21.434 5.702 11.746   0   0 128
21.431 5.734 11.968   0   0 128
21.463 5.660 12.212   0   0 128
21.573 5.702 12.438   0   0 128
21.537 5.959 11.236   0   0 128
21.463 5.957 11.491   0   0 128
21.431 5.924 11.778   0   0 128
21.463 5.957 12.001   0   0 128
21.527 5.927 12.223   0   0 128
21.536 6.212 11.489   0   0 128
21.463 6.168 11.704   0   0 128
21.527 6.179 11.971   0   0 128
21.573 6.394 11.746   0   0 128
21.681 4.939 11.489   0   0 128
21.790 4.757 11.747   0   0 128
21.718 4.906 12.035   0   0 128
21.825 4.940 11.236   0   0 128
21.646 5.191 11.235   0   0 128
21.826 5.192 10.983   0   0 128
21.803 4.980 12.299   0   0 128
21.646 5.191 12.257   0   0 128
21.827 5.192 12.511   0   0 128
21.682 5.445 10.982   0   0 128
21.682 5.445 12.511   0   0 128
21.791 5.703 10.800   0   0 128
21.791 5.702 12.692   0   0 128
21.718 5.991 10.950   0   0 128
21.718 5.991 12.542   0   0 128
21.646 6.213 11.235   0   0 128
21.803 6.255 11.024   0   0 128
21.645 6.212 12.256   0   0 128
21.803 6.254 12.468   0   0 128
21.827 6.467 11.236   0   0 128
21.682 6.467 11.489   0   0 128
21.718 6.498 12.035   0   0 128
21.803 6.424 12.298   0   0 128
21.791 6.648 11.746   0   0 128
22.075 4.471 11.495   0   0 128
21.861 4.686 11.491   0   0 128
21.967 4.689 11.238   0   0 128
22.006 4.541 11.750   0   0 128
21.972 4.648 12.004   0   0 128
21.932 4.942 10.984   0   0 128
22.108 4.693 10.987   0   0 128
21.973 4.791 12.257   0   0 128
21.973 4.937 12.510   0   0 128
22.040 5.195 10.730   0   0 128
22.015 5.150 12.680   0   0 128
21.899 5.446 10.729   0   0 128
21.941 5.413 12.765   0   0 128
22.043 5.704 10.583   0   0 128
22.045 5.702 12.910   0   0 128
21.972 5.959 10.691   0   0 128
21.972 5.959 12.801   0   0 128
21.973 6.213 10.835   0   0 128
21.973 6.213 12.657   0   0 128
21.973 6.466 10.981   0   0 128
21.973 6.466 12.511   0   0 128
22.015 6.636 11.194   0   0 128
21.941 6.721 11.457   0   0 128
21.972 6.757 12.003   0   0 128
21.972 6.612 12.256   0   0 128
22.045 6.866 11.746   0   0 128
22.311 4.219 11.021   0   0 128
22.174 4.484 10.947   0   0 128
22.288 4.442 10.736   0   0 128
22.300 4.145 11.288   0   0 128
22.122 4.408 11.211   0   0 128
22.254 4.257 11.499   0   0 128
22.220 4.327 11.752   0   0 128
22.223 4.470 12.006   0   0 128
22.174 4.653 10.778   0   0 128
22.311 4.727 10.513   0   0 128
22.225 4.613 12.258   0   0 128
22.226 4.791 12.510   0   0 128
22.123 4.915 10.702   0   0 128
22.301 4.992 10.439   0   0 128
22.185 4.980 12.680   0   0 128
22.255 5.200 10.479   0   0 128
22.227 5.192 12.838   0   0 128
22.191 5.481 10.476   0   0 128
22.260 5.477 12.956   0   0 128
22.266 5.748 10.433   0   0 128
22.271 5.744 13.020   0   0 128
22.225 5.961 10.547   0   0 128
22.227 5.959 12.947   0   0 128
22.226 6.213 10.655   0   0 128
22.226 6.213 12.837   0   0 128
22.226 6.466 10.835   0   0 128
22.226 6.466 12.657   0   0 128
22.185 6.636 11.024   0   0 128
22.184 6.636 12.468   0   0 128
22.227 6.794 11.236   0   0 128
22.260 6.912 11.521   0   0 128
22.227 6.903 12.003   0   0 128
22.226 6.793 12.257   0   0 128
22.271 6.976 11.788   0   0 128
22.433 4.189 10.736 226  14 226
22.540 3.936 10.990 226  14 226
22.468 3.935 11.246   0   0 128
22.469 4.007 11.502   0   0 128
22.470 4.114 11.754   0   0 128
22.433 4.442 10.483 226  14 226
22.612 4.189 10.483   0   0 128
22.472 4.257 12.007   0   0 128
22.474 4.436 12.259   0   0 128
22.540 4.696 10.230 226  14 226
22.477 4.649 12.511   0   0 128
22.469 4.951 10.229   0   0 128
22.447 4.907 12.765   0   0 128
22.470 5.205 10.263   0   0 128
22.512 5.225 12.956   0   0 128
22.473 5.454 10.297   0   0 128
22.482 5.447 13.020   0   0 128
22.476 5.707 10.331   0   0 128
22.515 5.670 13.052   0   0 128
22.478 5.961 10.403   0   0 128
22.482 5.957 13.020   0   0 128
22.478 6.213 10.547   0   0 128
22.480 6.212 12.947   0   0 128
22.478 6.466 10.692   0   0 128
22.480 6.467 12.801   0   0 128
22.448 6.721 10.950   0   0 128
22.448 6.721 12.542   0   0 128
22.512 6.912 11.269   0   0 128
22.480 6.902 12.256   0   0 128
22.482 6.976 11.491   0   0 128
22.515 7.008 11.714   0   0 128
22.482 6.976 12.001   0   0 128
22.649 3.936 10.737 226  14 226
22.793 3.683 10.990 226  14 226
22.721 3.683 11.246 226  14 226
22.721 3.756 11.502 226  14 226
22.721 3.863 11.755   0   0 128
22.793 4.190 10.231 226  14 226
22.793 3.936 10.484 226  14 226
22.722 4.006 12.007   0   0 128
22.724 4.187 12.260   0   0 128
22.649 4.443 10.230 226  14 226
22.758 4.468 12.513   0   0 128
22.793 4.696 9.977 226  14 226
22.730 4.758 12.765   0   0 128
22.721 4.952 9.977 226  14 226
22.732 5.013 12.947   0   0 128
22.721 5.207 10.049   0   0 128
22.777 5.239 13.021   0   0 128
22.724 5.459 10.119   0   0 128
22.705 5.480 13.052   0   0 128
22.727 5.710 10.189   0   0 128
22.737 5.702 13.049   0   0 128
22.729 5.962 10.332   0   0 128
22.769 5.924 13.052   0   0 128
22.730 6.214 10.439   0   0 128
22.695 6.168 13.020   0   0 128
22.731 6.467 10.584   0   0 128
22.737 6.394 12.910   0   0 128
22.733 6.685 10.801   0   0 128
22.737 6.648 12.692   0   0 128
22.734 6.867 11.055   0   0 128
22.737 6.866 12.438   0   0 128
22.778 6.976 11.281   0   0 128
22.705 7.008 11.524   0   0 128
22.737 7.005 11.746   0   0 128
22.769 7.008 11.968   0   0 128
22.695 6.976 12.212   0   0 128
22.943 3.683 10.705 226  14 226
23.047 3.502 10.990 226  14 226
22.975 3.501 11.246 226  14 226
22.974 3.539 11.502 226  14 226
22.973 3.648 11.756 226  14 226
22.975 4.008 10.230 226  14 226
23.017 3.809 10.441 226  14 226
22.974 3.827 12.009 226  14 226
22.976 4.007 12.261   0   0 128
22.975 4.190 10.089 226  14 226
22.935 4.229 12.430 226  14 226
22.943 4.411 9.977 226  14 226
23.021 4.397 12.599   0   0 128
23.047 4.696 9.796 226  14 226
23.013 4.657 12.767   0   0 128
22.975 4.952 9.795 226  14 226
22.985 4.942 12.947   0   0 128
22.974 5.208 9.833 226  14 226
22.986 5.198 13.021   0   0 128
22.974 5.462 9.941   0   0 128
22.988 5.451 13.021   0   0 128
22.977 5.713 10.119   0   0 128
22.959 5.734 13.052   0   0 128
22.980 5.964 10.225   0   0 128
22.992 5.957 13.020   0   0 128
22.982 6.215 10.368   0   0 128
22.962 6.179 12.956   0   0 128
22.985 6.468 10.548   0   0 128
23.026 6.498 12.765   0   0 128
22.988 6.650 10.730   0   0 128
22.994 6.757 12.510   0   0 128
22.990 6.831 10.984   0   0 128
22.992 6.940 11.238   0   0 128
22.962 6.912 12.223   0   0 128
22.990 6.977 11.493   0   0 128
22.959 7.008 11.778   0   0 128
22.992 6.976 12.001   0   0 128
23.260 3.493 10.768 226  14 226
23.229 3.429 10.991 226  14 226
23.260 3.397 11.214 226  14 226
23.229 3.429 11.500 226  14 226
23.228 3.502 11.755 226  14 226
23.228 3.647 10.483 226  14 226
23.227 3.648 12.010 226  14 226
23.228 3.864 10.230 226  14 226
23.228 3.864 12.262 226  14 226
23.196 4.158 9.977 226  14 226
23.197 4.157 12.515 226  14 226
23.259 4.474 9.787 226  14 226
23.262 4.472 12.705   0   0 128
23.229 4.697 9.723 226  14 226
23.275 4.733 12.852   0   0 128
23.260 4.920 9.691 226  14 226
23.236 4.943 12.948   0   0 128
23.229 5.206 9.723 226  14 226
23.237 5.199 13.021   0   0 128
23.228 5.461 9.796 226  14 226
23.238 5.453 13.021   0   0 128
23.227 5.715 9.941   0   0 128
23.199 5.662 13.021   0   0 128
23.229 5.966 10.120   0   0 128
23.213 5.927 12.957   0   0 128
23.233 6.218 10.334   0   0 128
23.246 6.213 12.838   0   0 128
23.237 6.434 10.514   0   0 128
23.289 6.425 12.680   0   0 128
23.240 6.615 10.732   0   0 128
23.247 6.612 12.511   0   0 128
23.243 6.760 10.986   0   0 128
23.245 6.831 11.238   0   0 128
23.247 6.794 12.256   0   0 128
23.214 6.912 11.971   0   0 128
23.245 6.940 11.491   0   0 128
23.202 6.976 11.705   0   0 128
23.513 3.524 10.515 226  14 226
23.482 3.429 10.737 226  14 226
23.450 3.366 10.959 226  14 226
23.549 3.286 11.246 226  14 226
23.481 3.357 11.502 226  14 226
23.483 3.429 11.754 226  14 226
23.481 3.539 12.009 226  14 226
23.481 3.755 10.230 226  14 226
23.481 3.756 12.262 226  14 226
23.481 4.008 9.977 226  14 226
23.481 4.008 12.515 226  14 226
23.481 4.262 9.796 226  14 226
23.481 4.262 12.696   0   0 128
23.482 4.444 9.723 226  14 226
23.482 4.443 12.769   0   0 128
23.450 4.665 9.660 226  14 226
23.483 4.621 12.840   0   0 128
23.549 4.952 9.580 226  14 226
23.516 4.914 12.958   0   0 128
23.481 5.208 9.651 226  14 226
23.490 5.200 13.021   0   0 128
23.483 5.460 9.723 226  14 226
23.448 5.413 13.021   0   0 128
23.481 5.715 9.833 226  14 226
23.462 5.677 12.957   0   0 128
23.482 5.968 10.049 226  14 226
23.497 5.962 12.838   0   0 128
23.484 6.220 10.265   0   0 128
23.499 6.214 12.693   0   0 128
23.487 6.400 10.481   0   0 128
23.500 6.468 12.511   0   0 128
23.491 6.580 10.734   0   0 128
23.492 6.689 10.987   0   0 128
23.458 6.637 12.299   0   0 128
23.494 6.761 11.241   0   0 128
23.498 6.831 11.493   0   0 128
23.428 6.867 11.749   0   0 128
23.531 6.722 12.035   0   0 128
23.737 3.286 11.058 226  14 226
23.737 3.177 11.246 226  14 226
23.737 3.286 11.434 226  14 226
23.810 3.502 10.484 226  14 226
23.705 3.397 10.769 226  14 226
23.769 3.397 11.723 226  14 226
23.737 3.501 12.008 226  14 226
23.737 3.683 10.230 226  14 226
23.737 3.683 12.262 226  14 226
23.737 3.936 9.977 226  14 226
23.737 3.936 12.515 226  14 226
23.737 4.190 9.795 226  14 226
23.737 4.190 12.697 226  14 226
23.705 4.475 9.691 226  14 226
23.706 4.475 12.801   0   0 128
23.737 4.764 9.580 226  14 226
23.739 4.764 12.912   0   0 128
23.737 4.952 9.471 226  14 226
23.741 4.948 13.020   0   0 128
23.737 5.140 9.580 226  14 226
23.775 5.174 12.957   0   0 128
23.769 5.429 9.691 226  14 226
23.674 5.457 12.948   0   0 128
23.737 5.714 9.795 226  14 226
23.747 5.711 12.839   0   0 128
23.737 5.968 9.977 226  14 226
23.749 5.964 12.693   0   0 128
23.738 6.221 10.229   0   0 128
23.751 6.216 12.512   0   0 128
23.738 6.402 10.483   0   0 128
23.720 6.469 12.226   0   0 128
23.741 6.510 10.736   0   0 128
23.744 6.617 10.987   0   0 128
23.792 6.555 11.962   0   0 128
23.679 6.687 11.750   0   0 128
23.703 6.726 11.201   0   0 128
23.779 6.662 11.467   0   0 128
23.925 3.286 11.246 226  14 226
24.035 3.514 10.526 226  14 226
23.991 3.429 10.739 226  14 226
23.993 3.357 10.990 226  14 226
24.024 3.366 11.533 226  14 226
23.992 3.429 11.754 226  14 226
23.993 3.502 11.936 226  14 226
23.993 3.684 10.301 226  14 226
23.993 3.683 12.190 226  14 226
23.993 3.936 10.050 226  14 226
23.993 3.936 12.442 226  14 226
23.993 4.189 9.833 226  14 226
23.993 4.189 12.659 226  14 226
23.991 4.444 9.723 226  14 226
23.991 4.444 12.769 226  14 226
23.993 4.696 9.651 226  14 226
23.993 4.696 12.841 226  14 226
23.925 4.952 9.580 226  14 226
23.925 4.950 12.912 226  14 226
24.024 5.239 9.660 226  14 226
24.068 5.206 12.840   0   0 128
23.992 5.460 9.723 226  14 226
23.926 5.459 12.839   0   0 128
23.993 5.642 9.796 226  14 226
23.998 5.713 12.694   0   0 128
23.993 5.896 9.977 226  14 226
23.999 5.966 12.513   0   0 128
23.993 6.148 10.230 226  14 226
24.000 6.219 12.260   0   0 128
23.993 6.365 10.483   0   0 128
23.999 6.400 12.006   0   0 128
23.992 6.475 10.738   0   0 128
23.994 6.547 10.990   0   0 128
23.925 6.618 11.244   0   0 128
24.068 6.546 11.500   0   0 128
23.927 6.545 11.752   0   0 128
24.246 3.502 10.737 226  14 226
24.245 3.429 10.992 226  14 226
24.214 3.397 11.278 226  14 226
24.245 3.429 11.501 226  14 226
24.215 3.493 11.724 226  14 226
24.278 3.684 10.451 226  14 226
24.278 3.683 12.040 226  14 226
24.246 3.936 10.158 226  14 226
24.246 3.936 12.334 226  14 226
24.247 4.188 9.942 226  14 226
24.247 4.188 12.550 226  14 226
24.246 4.443 9.796 226  14 226
24.246 4.443 12.696 226  14 226
24.245 4.698 9.723 226  14 226
24.245 4.698 12.769 226  14 226
24.214 4.984 9.691 226  14 226
24.214 4.983 12.801 226  14 226
24.245 5.207 9.723 226  14 226
24.246 5.207 12.769 226  14 226
24.215 5.430 9.787 226  14 226
24.216 5.429 12.705   0   0 128
24.278 5.746 9.977 226  14 226
24.279 5.746 12.515   0   0 128
24.246 6.040 10.230 226  14 226
24.248 6.040 12.261   0   0 128
24.247 6.256 10.482 226  14 226
24.248 6.256 12.008   0   0 128
24.246 6.402 10.737 226  14 226
24.216 6.411 11.723   0   0 128
24.245 6.475 10.992 226  14 226
24.214 6.507 11.277 226  14 226
24.246 6.475 11.501   0   0 128
24.500 3.539 10.990 226  14 226
24.499 3.501 11.246 226  14 226
24.427 3.502 11.502 226  14 226
24.542 3.809 10.526 226  14 226
24.501 3.648 10.736 226  14 226
24.531 3.683 11.787 226  14 226
24.499 3.795 12.008 226  14 226
24.499 3.936 10.302 226  14 226
24.499 3.937 12.190 226  14 226
24.500 4.189 10.121 226  14 226
24.500 4.189 12.371 226  14 226
24.501 4.442 9.942 226  14 226
24.501 4.442 12.550 226  14 226
24.500 4.696 9.833 226  14 226
24.500 4.696 12.659 226  14 226
24.499 4.952 9.795 226  14 226
24.499 4.952 12.697 226  14 226
24.427 5.208 9.796 226  14 226
24.427 5.208 12.696 226  14 226
24.531 5.493 9.977 226  14 226
24.531 5.493 12.515 226  14 226
24.499 5.714 10.089 226  14 226
24.499 5.714 12.403   0   0 128
24.499 5.896 10.231 226  14 226
24.499 5.896 12.262 226  14 226
24.500 6.077 10.483 226  14 226
24.457 6.095 12.051   0   0 128
24.501 6.256 10.736 226  14 226
24.500 6.365 10.990 226  14 226
24.531 6.221 11.787 226  14 226
24.427 6.402 11.502   0   0 128
24.499 6.403 11.246 226  14 226
24.753 3.756 10.990 226  14 226
24.753 3.683 11.246 226  14 226
24.681 3.683 11.502 226  14 226
24.753 4.008 10.484 226  14 226
24.753 3.864 10.737 226  14 226
24.825 3.936 11.755 226  14 226
24.681 3.936 12.008 226  14 226
24.752 4.190 10.302 226  14 226
24.753 4.190 12.190 226  14 226
24.753 4.443 10.158 226  14 226
24.753 4.443 12.334 226  14 226
24.753 4.696 10.050 226  14 226
24.753 4.696 12.442 226  14 226
24.753 4.952 9.977 226  14 226
24.753 4.952 12.515 226  14 226
24.681 5.208 9.977 226  14 226
24.681 5.208 12.515 226  14 226
24.825 5.461 10.230 226  14 226
24.825 5.461 12.262 226  14 226
24.681 5.714 10.230 226  14 226
24.681 5.714 12.261 226  14 226
24.753 5.896 10.484 226  14 226
24.681 5.968 12.008 226  14 226
24.753 6.040 10.737 226  14 226
24.753 6.148 10.990 226  14 226
24.825 5.968 11.755 226  14 226
24.681 6.221 11.502 226  14 226
24.753 6.221 11.246 226  14 226
25.006 4.008 10.990 226  14 226
25.006 3.936 11.246 226  14 226
24.933 3.936 11.502 226  14 226
24.894 4.190 10.484 226  14 226
25.006 4.158 10.705 226  14 226
25.041 4.188 11.756 226  14 226
24.880 4.147 11.966 226  14 226
25.006 4.411 10.452 226  14 226
25.005 4.411 12.041 226  14 226
25.006 4.696 10.302 226  14 226
25.005 4.696 12.191 226  14 226
25.006 4.952 10.230 226  14 226
25.006 4.952 12.262 226  14 226
24.933 5.208 10.230 226  14 226
24.934 5.208 12.262 226  14 226
25.041 5.462 10.482 226  14 226
25.042 5.462 12.009 226  14 226
24.880 5.672 10.441 226  14 226
24.862 5.715 12.009 226  14 226
25.005 5.747 10.705 226  14 226
25.005 5.897 10.990 226  14 226
25.042 5.715 11.756 226  14 226
24.934 5.968 11.502 226  14 226
25.006 5.968 11.246 226  14 226
25.187 4.262 10.990 226  14 226
25.188 4.190 11.246 226  14 226
25.150 4.189 11.502 226  14 226
25.196 4.474 10.768 226  14 226
25.187 4.443 11.755 226  14 226
25.187 4.696 10.556 226  14 226
25.175 4.654 11.966 226  14 226
25.188 4.952 10.484 226  14 226
25.187 4.879 12.008 226  14 226
25.150 5.208 10.483 226  14 226
25.165 5.176 11.977 226  14 226
25.187 5.461 10.737 226  14 226
25.196 5.430 11.724 226  14 226
25.175 5.672 10.948 226  14 226
25.165 5.683 11.470 226  14 226
25.187 5.714 11.173 226  14 226
25.260 4.444 10.991 226  14 226
25.292 4.475 11.214 226  14 226
25.260 4.444 11.500 226  14 226
25.260 4.697 10.738 226  14 226
25.323 4.665 10.959 226  14 226
25.403 4.764 11.246 226  14 226
25.332 4.696 11.502 226  14 226
25.260 4.698 11.753 226  14 226
25.292 4.920 10.769 226  14 226
25.403 4.952 11.058 226  14 226
25.403 4.952 11.434 226  14 226
25.292 4.984 11.723 226  14 226
25.260 5.206 10.738 226  14 226
25.332 5.208 10.990 226  14 226
25.403 5.140 11.246 226  14 226
25.323 5.239 11.533 226  14 226
25.260 5.207 11.755 226  14 226
25.260 5.459 10.992 226  14 226
25.292 5.429 11.278 226  14 226
25.260 5.461 11.501 226  14 226
25.512 4.952 11.246 226  14 226
3 0 1 2   0   0 128
3 3 1 0   0   0 128
3 2 4 5   0   0 128
3 2 1 6   0   0 128
3 2 6 4   0   0 128
3 1 3 7   0   0 128
3 1 7 6   0   0 128
3 8 7 3   0   0 128
3 5 9 10   0   0 128
3 5 4 11   0   0 128
3 5 11 9   0   0 128
3 11 4 6   0   0 128
3 11 6 12   0   0 128
3 6 7 13   0   0 128
3 6 13 12   0   0 128
3 7 8 14   0   0 128
3 7 14 13   0   0 128
3 15 14 8   0   0 128
3 10 9 16   0   0 128
3 9 11 17   0   0 128
3 9 17 16   0   0 128
3 18 17 11   0   0 128
3 18 11 12   0   0 128
3 13 19 18   0   0 128
3 13 18 12   0   0 128
3 13 14 20   0   0 128
3 13 20 19   0   0 128
3 20 14 15   0   0 128
3 16 17 21   0   0 128
3 17 18 22   0   0 128
3 17 22 21   0   0 128
3 18 19 23   0   0 128
3 18 23 22   0   0 128
3 23 19 20   0   0 128
3 21 22 24   0   0 128
3 24 22 23   0   0 128
3 25 26 0   0   0 128
3 27 0 26   0   0 128
3 28 29 30   0   0 128
3 29 28 25   0   0 128
3 29 25 2   0   0 128
3 2 25 0   0   0 128
3 27 3 0   0   0 128
3 27 31 32   0   0 128
3 27 32 3   0   0 128
3 33 32 31   0   0 128
3 34 30 29   0   0 128
3 34 29 5   0   0 128
3 5 29 2   0   0 128
3 32 8 3   0   0 128
3 32 33 35   0   0 128
3 32 35 8   0   0 128
3 36 34 10   0   0 128
3 10 34 5   0   0 128
3 35 15 8   0   0 128
3 37 15 35   0   0 128
3 36 10 38   0   0 128
3 38 10 16   0   0 128
3 15 39 20   0   0 128
3 37 39 15   0   0 128
3 40 41 38   0   0 128
3 40 38 16   0   0 128
3 40 16 21   0   0 128
3 20 42 23   0   0 128
3 39 43 42   0   0 128
3 39 42 20   0   0 128
3 41 40 44   0   0 128
3 45 44 40   0   0 128
3 45 40 21   0   0 128
3 45 21 24   0   0 128
3 23 46 24   0   0 128
3 42 47 46   0   0 128
3 42 46 23   0   0 128
3 47 42 43   0   0 128
3 45 24 48   0   0 128
3 46 48 24   0   0 128
3 49 50 51   0   0 128
3 50 49 52   0   0 128
3 50 52 26   0   0 128
3 53 26 52   0   0 128
3 54 55 51   0   0 128
3 54 51 28   0   0 128
3 50 25 28   0   0 128
3 50 28 51   0   0 128
3 25 50 26   0   0 128
3 53 27 26   0   0 128
3 56 31 27   0   0 128
3 56 27 53   0   0 128
3 57 31 56   0   0 128
3 58 54 30   0   0 128
3 30 54 28   0   0 128
3 57 33 31   0   0 128
3 59 33 57   0   0 128
3 30 34 60   0   0 128
3 30 60 58   0   0 128
3 61 35 33   0   0 128
3 61 33 59   0   0 128
3 62 60 36   0   0 128
3 36 60 34   0   0 128
3 61 37 35   0   0 128
3 63 37 61   0   0 128
3 62 36 64   0   0 128
3 64 36 38   0   0 128
3 37 65 39   0   0 128
3 63 65 37   0   0 128
3 38 41 66   0   0 128
3 38 66 64   0   0 128
3 67 43 39   0   0 128
3 67 39 65   0   0 128
3 66 41 68   0   0 128
3 68 41 44   0   0 128
3 43 69 47   0   0 128
3 67 69 43   0   0 128
3 68 44 70   0   0 128
3 71 70 44   0   0 128
3 71 44 45   0   0 128
3 71 45 48   0   0 128
3 46 72 48   0   0 128
3 73 72 46   0   0 128
3 73 46 47   0   0 128
3 69 73 47   0   0 128
3 71 48 74   0   0 128
3 72 74 48   0   0 128
3 75 76 77   0   0 128
3 75 78 79   0   0 128
3 75 79 76   0   0 128
3 79 78 80   0   0 128
3 79 80 49   0   0 128
3 81 52 49   0   0 128
3 81 49 80   0   0 128
3 52 81 82   0   0 128
3 77 83 84   0   0 128
3 83 77 76   0   0 128
3 83 76 55   0   0 128
3 79 51 55   0   0 128
3 79 55 76   0   0 128
3 51 79 49   0   0 128
3 82 53 52   0   0 128
3 85 56 53   0   0 128
3 85 53 82   0   0 128
3 56 85 86   0   0 128
3 84 83 87   0   0 128
3 84 87 88   0   0 128
3 55 54 87   0   0 128
3 55 87 83   0   0 128
3 86 57 56   0   0 128
3 89 57 86   0   0 128
3 90 88 87   0   0 128
3 90 87 58   0   0 128
3 58 87 54   0   0 128
3 89 59 57   0   0 128
3 89 91 59   0   0 128
3 58 60 92   0   0 128
3 58 92 90   0   0 128
3 61 59 91   0   0 128
3 61 91 93   0   0 128
3 62 94 92   0   0 128
3 62 92 60   0   0 128
3 93 63 61   0   0 128
3 93 95 63   0   0 128
3 96 94 62   0   0 128
3 96 62 64   0   0 128
3 63 97 65   0   0 128
3 63 95 97   0   0 128
3 64 66 98   0   0 128
3 64 98 96   0   0 128
3 99 67 65   0   0 128
3 99 65 97   0   0 128
3 100 98 66   0   0 128
3 100 66 68   0   0 128
3 67 101 69   0   0 128
3 67 99 101   0   0 128
3 100 68 102   0   0 128
3 102 68 70   0   0 128
3 69 103 73   0   0 128
3 101 103 69   0   0 128
3 70 104 102   0   0 128
3 104 70 71   0   0 128
3 104 71 105   0   0 128
3 105 71 74   0   0 128
3 72 106 74   0   0 128
3 72 73 107   0   0 128
3 72 107 106   0   0 128
3 103 107 73   0   0 128
3 74 108 105   0   0 128
3 106 108 74   0   0 128
3 109 110 75 226  14 226
3 111 78 75   0   0 128
3 111 75 110   0   0 128
3 112 80 78   0   0 128
3 112 78 111   0   0 128
3 113 80 112   0   0 128
3 114 115 109 226  14 226
3 114 109 77 226  14 226
3 77 109 75   0   0 128
3 113 81 80   0   0 128
3 116 82 81   0   0 128
3 116 81 113   0   0 128
3 117 82 116   0   0 128
3 118 114 84 226  14 226
3 84 114 77   0   0 128
3 117 85 82   0   0 128
3 119 86 85   0   0 128
3 119 85 117   0   0 128
3 84 88 120   0   0 128
3 84 120 118   0   0 128
3 86 119 121   0   0 128
3 86 121 89   0   0 128
3 88 90 122   0   0 128
3 88 122 120   0   0 128
3 91 89 121   0   0 128
3 91 121 123   0   0 128
3 90 92 124   0   0 128
3 90 124 122   0   0 128
3 123 93 91   0   0 128
3 123 125 93   0   0 128
3 92 94 126   0   0 128
3 92 126 124   0   0 128
3 93 125 127   0   0 128
3 93 127 95   0   0 128
3 94 96 128   0   0 128
3 94 128 126   0   0 128
3 95 127 129   0   0 128
3 95 129 97   0   0 128
3 130 128 96   0   0 128
3 130 96 98   0   0 128
3 97 131 99   0   0 128
3 97 129 131   0   0 128
3 98 100 132   0   0 128
3 98 132 130   0   0 128
3 133 101 99   0   0 128
3 133 99 131   0   0 128
3 100 102 134   0   0 128
3 100 134 132   0   0 128
3 101 133 135   0   0 128
3 101 135 103   0   0 128
3 134 102 104   0   0 128
3 134 104 136   0   0 128
3 136 104 105   0   0 128
3 107 137 106   0   0 128
3 107 103 135   0   0 128
3 107 135 137   0   0 128
3 105 138 136   0   0 128
3 105 108 139   0   0 128
3 105 139 138   0   0 128
3 108 106 140   0   0 128
3 108 140 139   0   0 128
3 137 140 106   0   0 128
3 141 142 110 226  14 226
3 143 111 110 226  14 226
3 143 110 142 226  14 226
3 144 112 111   0   0 128
3 144 111 143 226  14 226
3 145 112 144   0   0 128
3 146 147 115 226  14 226
3 141 109 115 226  14 226
3 141 115 147 226  14 226
3 109 141 110 226  14 226
3 145 113 112   0   0 128
3 148 116 113   0   0 128
3 148 113 145   0   0 128
3 149 116 148   0   0 128
3 115 114 150 226  14 226
3 115 150 146 226  14 226
3 149 117 116   0   0 128
3 151 117 149   0   0 128
3 152 150 118 226  14 226
3 118 150 114 226  14 226
3 151 119 117   0   0 128
3 153 119 151   0   0 128
3 118 120 154 226  14 226
3 118 154 152 226  14 226
3 153 121 119   0   0 128
3 155 121 153   0   0 128
3 120 122 156   0   0 128
3 120 156 154   0   0 128
3 155 123 121   0   0 128
3 155 157 123   0   0 128
3 122 124 158   0   0 128
3 122 158 156   0   0 128
3 123 157 159   0   0 128
3 123 159 125   0   0 128
3 124 126 160   0   0 128
3 124 160 158   0   0 128
3 127 125 159   0   0 128
3 127 159 161   0   0 128
3 162 160 126   0   0 128
3 162 126 128   0   0 128
3 163 129 127   0   0 128
3 163 127 161   0   0 128
3 128 130 164   0   0 128
3 128 164 162   0   0 128
3 129 163 165   0   0 128
3 129 165 131   0   0 128
3 166 164 130   0   0 128
3 166 130 132   0   0 128
3 131 167 133   0   0 128
3 131 165 167   0   0 128
3 166 132 168   0   0 128
3 168 132 134   0   0 128
3 133 169 135   0   0 128
3 167 169 133   0   0 128
3 168 134 170   0   0 128
3 170 134 136   0   0 128
3 135 171 137   0   0 128
3 169 171 135   0   0 128
3 136 172 170   0   0 128
3 136 138 173   0   0 128
3 136 173 172   0   0 128
3 173 138 139   0   0 128
3 173 139 174   0   0 128
3 139 140 175   0   0 128
3 139 175 174   0   0 128
3 140 137 176   0   0 128
3 140 176 175   0   0 128
3 171 176 137   0   0 128
3 177 178 142 226  14 226
3 179 143 142 226  14 226
3 179 142 178 226  14 226
3 180 144 143 226  14 226
3 180 143 179 226  14 226
3 181 144 180 226  14 226
3 182 183 147 226  14 226
3 177 141 147 226  14 226
3 177 147 183 226  14 226
3 141 177 142 226  14 226
3 181 145 144 226  14 226
3 184 148 145   0   0 128
3 184 145 181 226  14 226
3 185 148 184   0   0 128
3 186 182 146 226  14 226
3 146 182 147 226  14 226
3 185 149 148   0   0 128
3 187 149 185   0   0 128
3 146 150 188 226  14 226
3 146 188 186 226  14 226
3 187 151 149   0   0 128
3 187 189 151   0   0 128
3 190 188 152 226  14 226
3 152 188 150 226  14 226
3 151 189 191   0   0 128
3 151 191 153   0   0 128
3 152 154 192 226  14 226
3 152 192 190 226  14 226
3 153 191 193   0   0 128
3 153 193 155   0   0 128
3 154 156 194 226  14 226
3 154 194 192 226  14 226
3 155 193 195   0   0 128
3 155 195 157   0   0 128
3 194 156 196   0   0 128
3 196 156 158   0   0 128
3 157 195 197   0   0 128
3 157 197 159   0   0 128
3 158 160 198   0   0 128
3 158 198 196   0   0 128
3 159 197 199   0   0 128
3 159 199 161   0   0 128
3 160 162 200   0   0 128
3 160 200 198   0   0 128
3 199 201 163   0   0 128
3 199 163 161   0   0 128
3 162 164 202   0   0 128
3 162 202 200   0   0 128
3 163 201 203   0   0 128
3 163 203 165   0   0 128
3 164 166 204   0   0 128
3 164 204 202   0   0 128
3 167 203 205   0   0 128
3 167 165 203   0   0 128
3 166 168 206   0   0 128
3 166 206 204   0   0 128
3 169 205 207   0   0 128
3 167 205 169   0   0 128
3 208 206 168   0   0 128
3 208 168 170   0   0 128
3 208 170 209   0   0 128
3 171 207 210   0   0 128
3 169 207 171   0   0 128
3 170 172 209   0   0 128
3 172 173 211   0   0 128
3 172 211 209   0   0 128
3 212 211 173   0   0 128
3 212 173 174   0   0 128
3 175 213 212   0   0 128
3 175 212 174   0   0 128
3 175 176 210   0   0 128
3 175 210 213   0   0 128
3 210 176 171   0   0 128
3 214 215 178 226  14 226
3 178 215 216 226  14 226
3 178 216 179 226  14 226
3 179 216 217 226  14 226
3 179 217 180 226  14 226
3 180 217 218 226  14 226
3 177 183 219 226  14 226
3 177 219 214 226  14 226
3 177 214 178 226  14 226
3 218 181 180 226  14 226
3 220 184 181 226  14 226
3 220 181 218 226  14 226
3 183 182 221 226  14 226
3 183 221 219 226  14 226
3 184 220 222 226  14 226
3 184 222 185 226  14 226
3 182 186 223 226  14 226
3 182 223 221 226  14 226
3 185 222 224 226  14 226
3 185 224 187 226  14 226
3 223 186 188 226  14 226
3 223 188 225 226  14 226
3 189 187 224 226  14 226
3 189 224 226   0   0 128
3 190 227 225 226  14 226
3 190 225 188 226  14 226
3 226 191 189   0   0 128
3 226 228 191   0   0 128
3 190 192 229 226  14 226
3 190 229 227 226  14 226
3 191 228 230   0   0 128
3 191 230 193   0   0 128
3 192 194 231 226  14 226
3 192 231 229 226  14 226
3 193 230 232   0   0 128
3 193 232 195   0   0 128
3 233 231 194 226  14 226
3 233 194 196 226  14 226
3 195 232 234   0   0 128
3 195 234 197   0   0 128
3 196 198 235   0   0 128
3 196 235 233   0   0 128
3 197 234 236   0   0 128
3 197 236 199   0   0 128
3 198 200 237   0   0 128
3 198 237 235   0   0 128
3 199 236 238   0   0 128
3 199 238 201   0   0 128
3 239 237 200   0   0 128
3 239 200 202   0   0 128
3 203 238 240   0   0 128
3 203 201 238   0   0 128
3 202 204 241   0   0 128
3 202 241 239   0   0 128
3 240 242 205   0   0 128
3 240 205 203   0   0 128
3 204 206 243   0   0 128
3 204 243 241   0   0 128
3 205 242 244   0   0 128
3 205 244 207   0   0 128
3 206 208 245   0   0 128
3 206 245 243   0   0 128
3 208 209 246   0   0 128
3 208 246 245   0   0 128
3 210 247 248   0   0 128
3 207 244 247   0   0 128
3 207 247 210   0   0 128
3 209 211 249   0   0 128
3 209 249 246   0   0 128
3 211 212 250   0   0 128
3 211 250 249   0   0 128
3 212 213 248   0   0 128
3 212 248 250   0   0 128
3 248 213 210   0   0 128
3 251 252 214 226  14 226
3 214 252 253 226  14 226
3 214 253 215 226  14 226
3 216 215 253 226  14 226
3 216 253 254 226  14 226
3 255 217 216 226  14 226
3 255 216 254 226  14 226
3 217 255 256 226  14 226
3 217 256 218 226  14 226
3 218 256 257 226  14 226
3 258 251 219 226  14 226
3 219 251 214 226  14 226
3 257 220 218 226  14 226
3 259 220 257 226  14 226
3 260 258 221 226  14 226
3 221 258 219 226  14 226
3 259 222 220 226  14 226
3 261 222 259 226  14 226
3 262 260 223 226  14 226
3 223 260 221 226  14 226
3 261 224 222 226  14 226
3 263 224 261 226  14 226
3 225 264 262 226  14 226
3 225 262 223 226  14 226
3 263 226 224   0   0 128
3 263 265 226   0   0 128
3 225 227 266 226  14 226
3 225 266 264 226  14 226
3 226 265 267   0   0 128
3 226 267 228   0   0 128
3 266 227 229 226  14 226
3 266 229 268 226  14 226
3 228 267 269   0   0 128
3 228 269 230   0   0 128
3 229 231 270 226  14 226
3 229 270 268 226  14 226
3 230 269 271   0   0 128
3 230 271 232   0   0 128
3 231 233 272 226  14 226
3 231 272 270 226  14 226
3 232 271 273   0   0 128
3 232 273 234   0   0 128
3 274 272 233 226  14 226
3 274 233 235 226  14 226
3 234 273 275   0   0 128
3 234 275 236   0   0 128
3 274 235 276 226  14 226
3 276 235 237   0   0 128
3 238 275 277   0   0 128
3 238 236 275   0   0 128
3 237 239 278   0   0 128
3 237 278 276   0   0 128
3 277 279 240   0   0 128
3 277 240 238   0   0 128
3 239 241 280   0   0 128
3 239 280 278   0   0 128
3 242 279 281   0   0 128
3 242 240 279   0   0 128
3 282 280 241   0   0 128
3 282 241 243   0   0 128
3 282 243 283   0   0 128
3 244 281 284   0   0 128
3 242 281 244   0   0 128
3 243 245 283   0   0 128
3 285 283 245   0   0 128
3 285 245 246   0   0 128
3 286 285 246   0   0 128
3 286 246 249   0   0 128
3 286 249 287   0   0 128
3 248 288 287   0   0 128
3 247 284 288   0   0 128
3 247 288 248   0   0 128
3 284 247 244   0   0 128
3 249 250 287   0   0 128
3 287 250 248   0   0 128
3 289 290 254 226  14 226
3 254 290 291 226  14 226
3 251 292 293 226  14 226
3 251 293 252 226  14 226
3 253 252 293 226  14 226
3 253 293 289 226  14 226
3 253 289 254 226  14 226
3 291 255 254 226  14 226
3 294 256 255 226  14 226
3 294 255 291 226  14 226
3 256 294 295 226  14 226
3 256 295 257 226  14 226
3 251 258 296 226  14 226
3 251 296 292 226  14 226
3 257 295 297 226  14 226
3 257 297 259 226  14 226
3 258 260 298 226  14 226
3 258 298 296 226  14 226
3 259 297 299 226  14 226
3 259 299 261 226  14 226
3 260 262 300 226  14 226
3 260 300 298 226  14 226
3 261 299 301 226  14 226
3 261 301 263 226  14 226
3 262 264 302 226  14 226
3 262 302 300 226  14 226
3 263 301 303   0   0 128
3 263 303 265   0   0 128
3 302 264 266 226  14 226
3 302 266 304 226  14 226
3 267 265 303   0   0 128
3 267 303 305   0   0 128
3 268 306 304 226  14 226
3 268 304 266 226  14 226
3 305 269 267   0   0 128
3 305 307 269   0   0 128
3 308 306 268 226  14 226
3 308 268 270 226  14 226
3 269 307 309   0   0 128
3 269 309 271   0   0 128
3 270 272 310 226  14 226
3 270 310 308 226  14 226
3 271 309 311   0   0 128
3 271 311 273   0   0 128
3 272 274 312 226  14 226
3 272 312 310 226  14 226
3 275 311 313   0   0 128
3 275 273 311   0   0 128
3 274 276 314 226  14 226
3 274 314 312 226  14 226
3 313 315 277   0   0 128
3 313 277 275   0   0 128
3 276 278 316   0   0 128
3 276 316 314 226  14 226
3 279 315 317   0   0 128
3 279 277 315   0   0 128
3 278 280 318   0   0 128
3 278 318 316   0   0 128
3 281 317 319   0   0 128
3 279 317 281   0   0 128
3 280 282 320   0   0 128
3 280 320 318   0   0 128
3 282 283 321   0   0 128
3 282 321 320   0   0 128
3 288 322 323   0   0 128
3 319 322 288   0   0 128
3 319 288 284   0   0 128
3 281 319 284   0   0 128
3 283 285 324   0   0 128
3 283 324 321   0   0 128
3 285 286 325   0   0 128
3 285 325 324   0   0 128
3 323 325 286   0   0 128
3 323 286 287   0   0 128
3 288 323 287   0   0 128
3 326 290 289 226  14 226
3 291 290 326 226  14 226
3 292 327 328 226  14 226
3 292 328 293 226  14 226
3 293 328 329 226  14 226
3 293 329 289 226  14 226
3 289 329 326 226  14 226
3 330 291 326 226  14 226
3 330 331 294 226  14 226
3 330 294 291 226  14 226
3 294 331 332 226  14 226
3 294 332 295 226  14 226
3 292 296 333 226  14 226
3 292 333 327 226  14 226
3 295 332 334 226  14 226
3 295 334 297 226  14 226
3 296 298 335 226  14 226
3 296 335 333 226  14 226
3 297 334 336 226  14 226
3 297 336 299 226  14 226
3 298 300 337 226  14 226
3 298 337 335 226  14 226
3 299 336 338 226  14 226
3 299 338 301 226  14 226
3 300 302 339 226  14 226
3 300 339 337 226  14 226
3 301 338 340 226  14 226
3 301 340 303 226  14 226
3 341 339 302 226  14 226
3 341 302 304 226  14 226
3 303 340 342 226  14 226
3 303 342 305   0   0 128
3 304 306 343 226  14 226
3 304 343 341 226  14 226
3 344 305 342 226  14 226
3 344 307 305   0   0 128
3 343 306 308 226  14 226
3 343 308 345 226  14 226
3 309 344 346   0   0 128
3 309 307 344   0   0 128
3 310 347 345 226  14 226
3 310 345 308 226  14 226
3 309 346 348   0   0 128
3 309 348 311   0   0 128
3 310 312 349 226  14 226
3 310 349 347 226  14 226
3 348 350 313   0   0 128
3 348 313 311   0   0 128
3 312 314 351 226  14 226
3 312 351 349 226  14 226
3 315 350 352   0   0 128
3 315 313 350   0   0 128
3 314 316 353 226  14 226
3 314 353 351 226  14 226
3 317 352 354   0   0 128
3 315 352 317   0   0 128
3 316 318 355   0   0 128
3 316 355 353   0   0 128
3 319 354 356   0   0 128
3 317 354 319   0   0 128
3 318 320 357   0   0 128
3 318 357 355   0   0 128
3 358 357 320   0   0 128
3 358 320 321   0   0 128
3 358 321 359   0   0 128
3 325 360 359   0   0 128
3 361 360 325   0   0 128
3 361 325 323   0   0 128
3 322 356 361   0   0 128
3 322 361 323   0   0 128
3 356 322 319   0   0 128
3 321 324 359   0   0 128
3 359 324 325   0   0 128
3 362 328 327 226  14 226
3 328 362 363 226  14 226
3 328 363 329 226  14 226
3 329 363 364 226  14 226
3 329 364 326 226  14 226
3 364 365 330 226  14 226
3 364 330 326 226  14 226
3 330 365 366 226  14 226
3 330 366 331 226  14 226
3 332 331 366 226  14 226
3 333 367 327 226  14 226
3 327 367 362 226  14 226
3 368 332 366 226  14 226
3 334 332 368 226  14 226
3 335 369 333 226  14 226
3 333 369 367 226  14 226
3 370 334 368 226  14 226
3 336 334 370 226  14 226
3 337 371 335 226  14 226
3 335 371 369 226  14 226
3 372 336 370 226  14 226
3 338 336 372 226  14 226
3 337 339 373 226  14 226
3 337 373 371 226  14 226
3 374 338 372 226  14 226
3 374 340 338 226  14 226
3 339 341 375 226  14 226
3 339 375 373 226  14 226
3 340 374 376 226  14 226
3 340 376 342 226  14 226
3 377 375 341 226  14 226
3 377 341 343 226  14 226
3 342 376 378 226  14 226
3 342 378 344 226  14 226
3 345 379 377 226  14 226
3 345 377 343 226  14 226
3 378 380 346 226  14 226
3 378 346 344 226  14 226
3 345 347 381 226  14 226
3 345 381 379 226  14 226
3 346 380 382   0   0 128
3 346 382 348   0   0 128
3 381 347 349 226  14 226
3 381 349 383 226  14 226
3 350 382 384   0   0 128
3 350 348 382   0   0 128
3 349 351 383 226  14 226
3 383 351 385 226  14 226
3 352 384 386   0   0 128
3 350 384 352   0   0 128
3 351 353 385 226  14 226
3 385 353 387 226  14 226
3 354 386 388   0   0 128
3 352 386 354   0   0 128
3 353 355 387 226  14 226
3 387 355 389 226  14 226
3 356 388 390   0   0 128
3 354 388 356   0   0 128
3 355 357 389   0   0 128
3 357 358 391   0   0 128
3 357 391 389 226  14 226
3 392 391 358 226  14 226
3 392 358 359   0   0 128
3 360 393 392   0   0 128
3 360 392 359   0   0 128
3 360 361 390   0   0 128
3 360 390 393   0   0 128
3 390 361 356   0   0 128
3 394 363 362 226  14 226
3 363 394 395 226  14 226
3 363 395 364 226  14 226
3 364 395 396 226  14 226
3 364 396 365 226  14 226
3 366 365 396 226  14 226
3 367 397 398 226  14 226
3 367 398 362 226  14 226
3 362 398 394 226  14 226
3 399 366 396 226  14 226
3 399 400 368 226  14 226
3 399 368 366 226  14 226
3 367 369 401 226  14 226
3 367 401 397 226  14 226
3 368 400 402 226  14 226
3 368 402 370 226  14 226
3 369 371 403 226  14 226
3 369 403 401 226  14 226
3 370 402 404 226  14 226
3 370 404 372 226  14 226
3 405 403 371 226  14 226
3 405 371 373 226  14 226
3 372 404 406 226  14 226
3 372 406 374 226  14 226
3 373 375 407 226  14 226
3 373 407 405 226  14 226
3 408 374 406 226  14 226
3 408 376 374 226  14 226
3 375 377 409 226  14 226
3 375 409 407 226  14 226
3 376 408 410 226  14 226
3 376 410 378 226  14 226
3 377 379 411 226  14 226
3 377 411 409 226  14 226
3 378 410 412 226  14 226
3 378 412 380 226  14 226
3 411 379 381 226  14 226
3 411 381 413 226  14 226
3 382 412 414 226  14 226
3 382 380 412 226  14 226
3 383 415 413 226  14 226
3 383 413 381 226  14 226
3 414 416 384   0   0 128
3 414 384 382   0   0 128
3 383 385 417 226  14 226
3 383 417 415 226  14 226
3 384 416 418   0   0 128
3 384 418 386   0   0 128
3 385 387 419 226  14 226
3 385 419 417 226  14 226
3 386 418 420   0   0 128
3 386 420 388   0   0 128
3 421 419 387 226  14 226
3 421 387 389 226  14 226
3 421 389 422 226  14 226
3 390 423 424   0   0 128
3 388 420 423   0   0 128
3 388 423 390   0   0 128
3 389 391 422 226  14 226
3 391 392 425 226  14 226
3 391 425 422 226  14 226
3 392 393 424   0   0 128
3 392 424 425 226  14 226
3 424 393 390   0   0 128
3 398 426 394 226  14 226
3 427 395 394 226  14 226
3 427 394 426 226  14 226
3 428 396 395 226  14 226
3 428 395 427 226  14 226
3 399 396 428 226  14 226
3 401 429 397 226  14 226
3 430 398 397 226  14 226
3 430 397 429 226  14 226
3 398 430 426 226  14 226
3 431 399 428 226  14 226
3 432 400 399 226  14 226
3 432 399 431 226  14 226
3 402 400 432 226  14 226
3 403 433 401 226  14 226
3 401 433 429 226  14 226
3 434 402 432 226  14 226
3 404 402 434 226  14 226
3 435 433 403 226  14 226
3 435 403 405 226  14 226
3 404 434 436 226  14 226
3 404 436 406 226  14 226
3 407 437 405 226  14 226
3 405 437 435 226  14 226
3 438 406 436 226  14 226
3 408 406 438 226  14 226
3 439 437 407 226  14 226
3 439 407 409 226  14 226
3 408 438 440 226  14 226
3 408 440 410 226  14 226
3 441 439 409 226  14 226
3 441 409 411 226  14 226
3 410 440 442 226  14 226
3 410 442 412 226  14 226
3 411 413 441 226  14 226
3 441 413 443 226  14 226
3 414 442 444 226  14 226
3 412 442 414 226  14 226
3 445 443 413 226  14 226
3 445 413 415 226  14 226
3 414 444 446 226  14 226
3 414 446 416 226  14 226
3 415 417 445 226  14 226
3 445 417 447 226  14 226
3 418 446 448 226  14 226
3 416 446 418 226  14 226
3 417 419 447 226  14 226
3 449 447 419 226  14 226
3 449 419 421 226  14 226
3 449 421 450 226  14 226
3 423 451 452 226  14 226
3 448 451 423 226  14 226
3 448 423 420 226  14 226
3 418 448 420 226  14 226
3 421 422 450 226  14 226
3 453 450 422 226  14 226
3 453 422 425 226  14 226
3 452 453 425 226  14 226
3 452 425 424 226  14 226
3 423 452 424 226  14 226
3 430 454 426 226  14 226
3 455 427 426 226  14 226
3 455 426 454 226  14 226
3 456 428 427 226  14 226
3 456 427 455 226  14 226
3 431 428 456 226  14 226
3 433 457 429 226  14 226
3 458 430 429 226  14 226
3 458 429 457 226  14 226
3 430 458 454 226  14 226
3 459 431 456 226  14 226
3 460 432 431 226  14 226
3 460 431 459 226  14 226
3 434 432 460 226  14 226
3 461 457 433 226  14 226
3 461 433 435 226  14 226
3 434 460 462 226  14 226
3 434 462 436 226  14 226
3 437 463 435 226  14 226
3 435 463 461 226  14 226
3 464 436 462 226  14 226
3 438 436 464 226  14 226
3 465 463 437 226  14 226
3 465 437 439 226  14 226
3 438 464 466 226  14 226
3 438 466 440 226  14 226
3 467 465 439 226  14 226
3 467 439 441 226  14 226
3 440 466 468 226  14 226
3 440 468 442 226  14 226
3 441 443 467 226  14 226
3 467 443 469 226  14 226
3 444 468 470 226  14 226
3 442 468 444 226  14 226
3 471 469 443 226  14 226
3 471 443 445 226  14 226
3 444 470 472 226  14 226
3 444 472 446 226  14 226
3 445 447 471 226  14 226
3 473 471 447 226  14 226
3 473 447 449 226  14 226
3 473 449 474 226  14 226
3 451 475 476 226  14 226
3 472 475 451 226  14 226
3 472 451 448 226  14 226
3 446 472 448 226  14 226
3 449 450 474 226  14 226
3 477 474 450 226  14 226
3 477 450 453 226  14 226
3 476 477 453 226  14 226
3 476 453 452 226  14 226
3 451 476 452 226  14 226
3 458 478 454 226  14 226
3 479 455 454 226  14 226
3 479 454 478 226  14 226
3 480 456 455 226  14 226
3 480 455 479 226  14 226
3 459 456 480 226  14 226
3 458 457 461 226  14 226
3 458 461 481 226  14 226
3 458 481 478 226  14 226
3 482 459 480 226  14 226
3 462 460 459 226  14 226
3 462 459 482 226  14 226
3 463 483 461 226  14 226
3 461 483 481 226  14 226
3 484 462 482 226  14 226
3 464 462 484 226  14 226
3 485 483 463 226  14 226
3 485 463 465 226  14 226
3 464 484 486 226  14 226
3 464 486 466 226  14 226
3 487 485 465 226  14 226
3 487 465 467 226  14 226
3 466 486 488 226  14 226
3 466 488 468 226  14 226
3 467 469 487 226  14 226
3 487 469 489 226  14 226
3 470 488 490 226  14 226
3 468 488 470 226  14 226
3 469 471 473 226  14 226
3 469 473 489 226  14 226
3 489 473 491 226  14 226
3 475 490 492 226  14 226
3 475 472 470 226  14 226
3 475 470 490 226  14 226
3 473 474 491 226  14 226
3 493 491 474 226  14 226
3 493 474 477 226  14 226
3 492 493 477 226  14 226
3 492 477 476 226  14 226
3 475 492 476 226  14 226
3 481 494 478 226  14 226
3 478 494 495 226  14 226
3 478 495 479 226  14 226
3 479 495 496 226  14 226
3 479 496 480 226  14 226
3 480 496 482 226  14 226
3 483 497 481 226  14 226
3 481 497 498 226  14 226
3 481 498 494 226  14 226
3 495 494 498 226  14 226
3 495 498 499 226  14 226
3 500 496 495 226  14 226
3 500 495 499 226  14 226
3 496 500 501 226  14 226
3 496 501 482 226  14 226
3 482 501 484 226  14 226
3 483 485 502 226  14 226
3 483 502 497 226  14 226
3 498 497 502 226  14 226
3 498 502 503 226  14 226
3 498 503 499 226  14 226
3 504 500 499 226  14 226
3 505 501 500 226  14 226
3 505 500 504 226  14 226
3 501 505 486 226  14 226
3 501 486 484 226  14 226
3 485 487 506 226  14 226
3 485 506 502 226  14 226
3 502 506 507 226  14 226
3 502 507 503 226  14 226
3 503 507 508 226  14 226
3 509 504 508 226  14 226
3 509 510 505 226  14 226
3 509 505 504 226  14 226
3 505 510 488 226  14 226
3 505 488 486 226  14 226
3 489 506 487 226  14 226
3 506 489 511 226  14 226
3 506 511 507 226  14 226
3 507 511 512 226  14 226
3 507 512 508 226  14 226
3 512 513 509 226  14 226
3 512 509 508 226  14 226
3 509 513 490 226  14 226
3 509 490 510 226  14 226
3 488 510 490 226  14 226
3 491 511 489 226  14 226
3 511 491 493 226  14 226
3 511 493 512 226  14 226
3 512 493 492 226  14 226
3 512 492 513 226  14 226
3 490 513 492 226  14 226
3 503 514 499 226  14 226
3 499 514 504 226  14 226
3 508 514 503 226  14 226
3 504 514 508 226  14 226
